<?xml version="1.0" encoding="UTF-8"?>
<svg width="148px" height="57px" viewBox="0 0 148 57" version="1.1" xmlns="http://www.w3.org/2000/svg" xmlns:xlink="http://www.w3.org/1999/xlink">
    <!-- Generator: Sketch 55.2 (78181) - https://sketchapp.com -->
    <title>编组 2</title>
    <desc>Created with Sketch.</desc>
    <g id="框架图" stroke="none" stroke-width="1" fill="none" fill-rule="evenodd">
        <g id="重构稿-修改" transform="translate(-770.000000, -252.000000)">
            <g id="1" transform="translate(-1.000000, 0.000000)">
                <g id="text" transform="translate(360.000000, 192.000000)">
                    <g id="编组-2" transform="translate(411.000000, 60.000000)">
                        <path d="M40,48 L34.1,55.8666667 C33.9862915,56.018278 33.8516113,56.1529582 33.7,56.2666667 C32.8163444,56.9294084 31.5627417,56.7503223 30.9,55.8666667 L25,48 L8,48 C3.581722,48 5.41083001e-16,44.418278 0,40 L0,8 C-5.41083001e-16,3.581722 3.581722,-2.76100849e-14 8,-2.84217094e-14 L140,-2.84217094e-14 C144.418278,-2.92333339e-14 148,3.581722 148,8 L148,40 C148,44.418278 144.418278,48 140,48 L40,48 Z" id="形状结合" fill="#ABB4EF"></path>
                        <text id="Incubating" font-family="PingFangSC-Semibold, PingFang SC" font-size="24" font-weight="500" fill="#FFFFFF">
                            <tspan x="16" y="33">Incubating</tspan>
                        </text>
                    </g>
                </g>
            </g>
        </g>
    </g>
</svg>