<?xml version="1.0" encoding="UTF-8"?>
<svg width="472px" height="154px" viewBox="0 0 472 154" version="1.1" xmlns="http://www.w3.org/2000/svg" xmlns:xlink="http://www.w3.org/1999/xlink">
    <title>主标题</title>
    <defs>
        <linearGradient x1="8.36638217%" y1="45.9316982%" x2="100%" y2="54.0308678%" id="linearGradient-1">
            <stop stop-color="#FFE8CB" offset="0%"></stop>
            <stop stop-color="#FFB26E" offset="100%"></stop>
        </linearGradient>
        <linearGradient x1="8.36638217%" y1="49.3445989%" x2="100%" y2="50.6493705%" id="linearGradient-2">
            <stop stop-color="#FFE7CB" offset="0%"></stop>
            <stop stop-color="#FFD2A5" offset="100%"></stop>
        </linearGradient>
    </defs>
    <g id="页面1" stroke="none" stroke-width="1" fill="none" fill-rule="evenodd">
        <g id="应龙官网-英文版排版适配" transform="translate(-360.000000, -337.000000)" fill-rule="nonzero">
            <g id="1">
                <g id="text" transform="translate(360.000000, 169.000000)">
                    <g id="主标题" transform="translate(0.000000, 168.000000)">
                        <path d="M41.4582019,17.8955513 L32.1754732,17.8955513 L32.1754732,89.9651838 L41.4582019,89.9651838 L41.4582019,107.860735 L0,107.860735 L0,89.9651838 L9.1431388,89.9651838 L9.1431388,17.8955513 L0,17.8955513 L0,2.84217094e-14 L41.4582019,2.84217094e-14 L41.4582019,17.8955513 Z M125.305205,107.860735 L102.901025,107.860735 L102.901025,64.8974855 C102.901025,52.4564175 98.4109282,46.2359768 89.4305994,46.2359768 C85.1498209,46.2359768 81.5903139,47.8955347 78.7519716,51.2147002 C75.9136293,54.5338657 74.4944795,58.7698002 74.4944795,63.9226306 L74.4944795,107.860735 L51.9507098,107.860735 L51.9507098,30.8471954 L74.4944795,30.8471954 L74.4944795,43.1025145 L74.7736593,43.1025145 C80.4038136,33.6788697 88.6860652,28.967118 99.6206625,28.967118 C116.743776,28.967118 125.305205,39.5511514 125.305205,60.7195358 L125.305205,107.860735 Z M207.267744,107.860735 L143.824132,107.860735 L143.824132,2.84217094e-14 L166.856467,2.84217094e-14 L166.856467,89.0599613 L207.267744,89.0599613 L207.267744,107.860735 Z M212.176656,69.7021277 C212.176656,57.0289502 215.980443,47.0716029 223.588131,39.8297872 C231.195819,32.5879715 241.420677,28.967118 254.263013,28.967118 C266.686576,28.967118 276.550831,32.529945 283.856073,39.655706 C291.161314,46.781467 294.81388,56.3558393 294.81388,68.3791103 C294.81388,81.0058658 291.068255,91.0560555 283.576893,98.5299807 C276.08553,106.003906 265.942099,109.740812 253.146293,109.740812 C240.583139,109.740812 230.614193,106.154775 223.239156,98.9825919 C215.864119,91.810409 212.176656,82.0503519 212.176656,69.7021277 Z M234.999606,69.4235977 C234.999606,84.7892451 241.281089,92.4719536 253.844243,92.4719536 C265.895565,92.4719536 271.921136,84.5803497 271.921136,68.7969052 C271.921136,53.7562111 265.849035,46.2359768 253.704653,46.2359768 C247.795317,46.2359768 243.200529,48.255299 239.92015,52.2940039 C236.639771,56.3327088 234.999606,62.0425163 234.999606,69.4235977 Z M381.103707,107.860735 L358.699527,107.860735 L358.699527,64.8974855 C358.699527,52.4564175 354.20943,46.2359768 345.229101,46.2359768 C340.948322,46.2359768 337.388815,47.8955347 334.550473,51.2147002 C331.712131,54.5338657 330.292981,58.7698002 330.292981,63.9226306 L330.292981,107.860735 L307.749211,107.860735 L307.749211,30.8471954 L330.292981,30.8471954 L330.292981,43.1025145 L330.572161,43.1025145 C336.202315,33.6788697 344.484567,28.967118 355.419164,28.967118 C372.542278,28.967118 381.103707,39.5511514 381.103707,60.7195358 L381.103707,107.860735 Z M472,99.3655706 C472,113.663514 468.263672,149 424.469637,149 C414.046872,149 405.764621,147.514522 399.622634,144.54352 L399.622634,125.324952 C407.625829,129.967141 416.745622,130 424.888407,130 C432.938132,130 449.526025,127.5 449.526025,102.98646 L449.526025,96.5802708 L449.17705,96.5802708 C443.733017,105.354009 435.636883,109.740812 424.888407,109.740812 C415.163595,109.740812 407.381536,106.282433 401.541995,99.3655706 C395.702455,92.4487082 392.782729,83.1876789 392.782729,71.582205 C392.782729,58.6304962 396.004897,48.290174 402.44933,40.5609284 C408.893763,32.8316828 417.3505,28.967118 427.819795,28.967118 C437.311956,28.967118 444.43097,32.6576033 449.17705,40.0386847 L449.526025,40.0386847 L449.526025,30.8471954 L472,30.8471954 L472,99.3655706 Z M449.73541,64.410058 C449.73541,59.3036495 448.188304,54.9980833 445.094046,51.4932302 C441.999787,47.9883771 438.102941,46.2359768 433.403391,46.2359768 C427.912827,46.2359768 423.573951,48.3829573 420.386632,52.6769826 C417.199314,56.9710079 415.605678,62.9941585 415.605678,70.7466151 C415.605678,77.4777899 417.141152,82.781412 420.212145,86.6576402 C423.283138,90.5338685 427.35447,92.4719536 432.426262,92.4719536 C437.544584,92.4719536 441.708974,90.4990526 444.919558,86.5531915 C448.130142,82.6073304 449.73541,77.4777879 449.73541,71.1644101 L449.73541,64.410058 Z" id="InLong" fill="url(#linearGradient-1)"></path>
                    </g>
                </g>
            </g>
        </g>
    </g>
</svg>