<?xml version="1.0" encoding="UTF-8"?>
<svg width="120px" height="40px" viewBox="0 0 120 40" version="1.1" fill="currentColor" xmlns="http://www.w3.org/2000/svg" xmlns:xlink="http://www.w3.org/1999/xlink">
    <title>编组 9</title>
    <defs>
        <linearGradient x1="21.4018039%" y1="6.67873476%" x2="90.574187%" y2="88.6401169%" id="linearGradient-1">
            <stop stop-color="#FAAD1A" offset="0%"></stop>
            <stop stop-color="#FF4444" offset="100%"></stop>
        </linearGradient>
    </defs>
    <g id="页面1" stroke="none" stroke-width="1" fill="none" fill-rule="evenodd">
        <g id="应龙官网" transform="translate(-560.000000, -20.000000)">
            <g id="1">
                <g id="top-bar">
                    <g id="编组-9" transform="translate(560.000000, 20.000000)">
                        <g id="编组-8" transform="translate(48.421053, 7.368421)" fill="#FFFFFF" fill-rule="nonzero">
                            <path d="M4.95143581,6.26359287 L4.36404744,4.86488691 L1.51397285,4.86488691 L0.934857555,6.26359287 L0.144778825,6.26359287 L2.56879001,0.415941714 L3.26372837,0.415941714 L5.75806069,6.26359287 L4.95143581,6.26359287 Z M2.9286688,1.42725098 L1.79112089,4.19204002 L4.0868994,4.19204002 L2.9286688,1.42725098 Z M10.1179716,1.65561114 C10.5674776,1.65561114 10.9714754,1.75755661 11.3299772,1.96145063 C11.6884789,2.16534465 11.9676924,2.44603453 12.1676261,2.80352871 C12.3675598,3.16102288 12.4675251,3.56268807 12.4675251,4.00853632 C12.4675251,4.68274587 12.2455331,5.243446 11.8015425,5.69065355 C11.3575519,6.13786109 10.7963672,6.36146151 10.1179716,6.36146151 C9.7815315,6.36146151 9.46646835,6.30029422 9.17277269,6.17795781 C8.87907703,6.0556214 8.6246825,5.88299372 8.40958146,5.6600696 L8.40958146,7.87434754 L7.68568733,7.87434754 L7.68568733,1.75347977 L8.18207187,1.75347977 L8.3268507,2.4426381 C8.54195174,2.1952467 8.80392985,2.00222992 9.11279289,1.86358199 C9.42165593,1.72493406 9.75671214,1.65561114 10.1179716,1.65561114 Z M8.85632754,5.19927142 C9.17897911,5.51734609 9.5815981,5.67638104 10.0641966,5.67638104 C10.5467951,5.67638104 10.9466564,5.51802572 11.2637926,5.20131035 C11.5809287,4.88459498 11.7394944,4.48700761 11.7394944,4.00853632 C11.7394944,3.53006503 11.5809287,3.13247766 11.2637926,2.81576229 C10.9466564,2.49904692 10.5467951,2.34069161 10.0641966,2.34069161 C9.5815981,2.34069161 9.17966853,2.49972655 8.85839581,2.81780122 C8.5371231,3.13587588 8.37648915,3.53278362 8.37648915,4.00853632 C8.37648915,4.48428903 8.53643368,4.88119676 8.85632754,5.19927142 Z M18.5151434,1.75347977 L19.0901222,1.75347977 L19.0901222,6.26359287 L18.4944607,6.26359287 L18.4158665,5.5785124 C18.2007655,5.8259038 17.9394768,6.01824094 17.6319926,6.15552958 C17.3245084,6.29281822 16.987384,6.36146151 16.6206091,6.36146151 C16.1766185,6.36146151 15.7739995,6.25951603 15.41274,6.05562201 C15.0514806,5.85172799 14.7681306,5.56967883 14.5626815,5.20946607 C14.3572324,4.84925331 14.2545094,4.4489474 14.2545094,4.00853632 C14.2545094,3.33432677 14.4799485,2.77362664 14.9308334,2.3264191 C15.3817183,1.87921155 15.9449712,1.65561114 16.6206091,1.65561114 C16.987384,1.65561114 17.3265767,1.72493406 17.6381974,1.86358199 C17.9498182,2.00222992 18.2131751,2.19660597 18.4282761,2.44671596 L18.5151434,1.75347977 Z M15.4706516,5.19927142 C15.7905454,5.51734609 16.1917856,5.67638104 16.6743841,5.67638104 C17.1569826,5.67638104 17.5575333,5.51802572 17.8760483,5.20131035 C18.1945633,4.88459498 18.3538185,4.48700761 18.3538185,4.00853632 C18.3538185,3.53006503 18.1945633,3.13247766 17.8760483,2.81576229 C17.5575333,2.49904692 17.1569826,2.34069161 16.6743841,2.34069161 C16.1917856,2.34069161 15.7905454,2.49972655 15.4706516,2.81780122 C15.1507577,3.13587588 14.9908132,3.53278362 14.9908132,4.00853632 C14.9908132,4.48428903 15.1507577,4.88119676 15.4706516,5.19927142 Z M23.6113581,6.36146151 C23.1673675,6.36146151 22.7633696,6.25951603 22.3993525,6.05562201 C22.0353353,5.85172799 21.7499171,5.56967883 21.5430891,5.20946607 C21.3362612,4.84925331 21.2328488,4.4489474 21.2328488,4.00853632 C21.2328488,3.56540666 21.3362612,3.16442111 21.5430891,2.80556764 C21.7499171,2.44671417 22.0353353,2.16534465 22.3993525,1.96145063 C22.7633696,1.75755661 23.1673675,1.65561114 23.6113581,1.65561114 C24.1546261,1.65561114 24.6254973,1.80241263 25.0239857,2.09602001 C25.4224742,2.38962739 25.6920359,2.7824573 25.8326789,3.27452153 L25.1211944,3.27452153 C24.9860668,2.98363273 24.7847573,2.75527486 24.5172599,2.58944106 C24.2497624,2.42360726 23.9477982,2.34069161 23.6113581,2.34069161 C23.1425481,2.34069161 22.7516492,2.50040619 22.4386496,2.81984015 C22.12565,3.13927411 21.9691525,3.5355022 21.9691525,4.00853632 C21.9691525,4.47885185 22.1263394,4.87440031 22.4407179,5.19519356 C22.7550963,5.51598681 23.1453058,5.67638104 23.6113581,5.67638104 C23.9477982,5.67638104 24.2470047,5.59210611 24.5089868,5.42355372 C24.7709688,5.25500133 24.9722783,5.01984709 25.1129213,4.71808395 L25.840952,4.71808395 C25.700309,5.21558535 25.4279896,5.61385235 25.0239857,5.91289691 C24.6199819,6.21194147 24.1491107,6.36146151 23.6113581,6.36146151 Z M30.1925898,1.65561114 C30.7358578,1.65561114 31.1660534,1.82755918 31.4831896,2.17146042 C31.8003258,2.51536166 31.9588915,2.97955341 31.9588915,3.56404959 L31.9588915,6.26359287 L31.2391339,6.26359287 L31.2391339,3.73124184 C31.2391339,3.27451925 31.1329638,2.92246753 30.9206205,2.67507612 C30.7082771,2.42768471 30.4035552,2.30399087 30.0064456,2.30399087 C29.6148514,2.30399087 29.2866893,2.44807381 29.0219496,2.73624402 C28.7572098,3.02441423 28.6248419,3.38054377 28.6248419,3.80464332 L28.6248419,6.26359287 L27.9009478,6.26359287 L27.9009478,0.142725098 L28.6248419,0.142725098 L28.6248419,2.36923662 C28.8040928,2.14359391 29.0288425,1.96824769 29.2990976,1.84319269 C29.5693528,1.7181377 29.8671805,1.65561114 30.1925898,1.65561114 Z M38.6724924,4.02892562 C38.6724924,4.11048323 38.6683559,4.19475816 38.6600828,4.28175294 L34.7593276,4.28175294 C34.8144817,4.70041532 34.988904,5.03615576 35.2825996,5.28898434 C35.5762953,5.54181292 35.9382387,5.66822532 36.3684408,5.66822532 C36.6828177,5.66822532 36.9627222,5.59958203 37.208158,5.46229339 C37.4535938,5.32500475 37.6480091,5.13402689 37.7914098,4.88935407 L38.5525328,4.88935407 C38.3567357,5.35423242 38.0678704,5.71579906 37.6859281,5.97406481 C37.3039859,6.23233056 36.8648278,6.36146151 36.3684408,6.36146151 C35.9327233,6.36146151 35.5363091,6.25951603 35.1791862,6.05562201 C34.8220633,5.85172799 34.5421604,5.57035847 34.339469,5.211505 C34.1367776,4.85265153 34.0354335,4.45166598 34.0354335,4.00853632 C34.0354335,3.56812524 34.1367776,3.16781933 34.339469,2.80760657 C34.5421604,2.44739381 34.8220633,2.16534465 35.1791862,1.96145063 C35.5363091,1.75755661 35.9327233,1.65561114 36.3684408,1.65561114 C36.8207045,1.65561114 37.2233235,1.76163443 37.5763099,1.97368421 C37.9292962,2.18573399 38.2002367,2.47186097 38.3891396,2.83207373 C38.5780424,3.19228649 38.6724924,3.59123313 38.6724924,4.02892562 Z M36.3684408,2.32845803 C35.954785,2.32845803 35.6045616,2.44603514 35.3177602,2.68119291 C35.0309588,2.91635068 34.8503318,3.23102239 34.7758737,3.62521749 L37.9527348,3.62521749 C37.875519,3.22558521 37.6942026,2.90955423 37.4087801,2.67711505 C37.1233575,2.44467587 36.7765813,2.32845803 36.3684408,2.32845803 Z" id="Apache"></path>
                            <path d="M1.49246286,24.845585 L1.49246286,11.9807525 L4.31358167,11.9807525 L4.31358167,24.845585 L1.49246286,24.845585 Z M15.1471743,11.9807525 L17.9136908,11.9807525 L17.9136908,24.845585 L15.5566916,24.845585 L9.64144243,16.8073075 L9.64144243,24.845585 L6.87492591,24.845585 L6.87492591,11.9807525 L9.42303323,11.9807525 L15.1471743,19.8306329 L15.1471743,11.9807525 Z M23.2870535,22.261853 L28.2922643,22.261853 L28.2922643,24.845585 L20.4659347,24.845585 L20.4659347,11.9807525 L23.2870535,11.9807525 L23.2870535,22.261853 Z M35.4857036,25.1236951 C34.5028573,25.1236951 33.5806944,24.951747 32.7191871,24.6078458 C31.8576799,24.2639446 31.1190395,23.7959468 30.5032438,23.2038386 C29.8874481,22.6117304 29.4020992,21.900015 29.0471825,21.0686712 C28.6922657,20.2373273 28.51481,19.3521687 28.51481,18.4131688 C28.51481,17.4741689 28.6922657,16.5890102 29.0471825,15.7576664 C29.4020992,14.9263225 29.8874481,14.2146071 30.5032438,13.6224989 C31.1190395,13.0303907 31.8576799,12.562393 32.7191871,12.2184917 C33.5806944,11.8745905 34.5028573,11.7026425 35.4857036,11.7026425 C36.462483,11.7026425 37.3800958,11.8730953 38.2385696,12.2140061 C39.0970434,12.5549169 39.8311336,13.0229146 40.4408623,13.6180133 C41.0505911,14.2131119 41.5313898,14.9248273 41.8832731,15.7531807 C42.2351563,16.5815342 42.4110953,17.468188 42.4110953,18.4131688 C42.4110953,19.3581496 42.2351563,20.2448034 41.8832731,21.0731568 C41.5313898,21.9015102 41.0505911,22.6132256 40.4408623,23.2083243 C39.8311336,23.8034229 39.0970434,24.2714207 38.2385696,24.6123314 C37.3800958,24.9532422 36.462483,25.1236951 35.4857036,25.1236951 Z M32.5644806,21.3288386 C33.3531844,22.1123354 34.3269157,22.5040779 35.4857036,22.5040779 C36.6444916,22.5040779 37.612156,22.1138306 38.3887259,21.3333243 C39.1652958,20.552818 39.553575,19.5794425 39.553575,18.4131688 C39.553575,17.246895 39.1652958,16.2750148 38.3887259,15.4974989 C37.612156,14.7199831 36.6444916,14.331231 35.4857036,14.331231 C34.3269157,14.331231 33.3531844,14.7229735 32.5644806,15.5064702 C31.7757768,16.2899669 31.3814308,17.2588568 31.3814308,18.4131688 C31.3814308,19.5674808 31.7757768,20.539361 32.5644806,21.3288386 Z M52.4711554,11.9807525 L55.2376719,11.9807525 L55.2376719,24.845585 L52.8806726,24.845585 L46.9654235,16.8073075 L46.9654235,24.845585 L44.198907,24.845585 L44.198907,11.9807525 L46.7470143,11.9807525 L52.4711554,19.8306329 L52.4711554,11.9807525 Z M63.5140568,18.1260874 L70.4576493,18.1260874 C70.4576493,19.4538453 70.1770569,20.6500056 69.6158638,21.7146042 C69.0546707,22.7792028 68.2659787,23.6135246 67.2497642,24.2175946 C66.2335496,24.8216646 65.0823626,25.1236951 63.7961687,25.1236951 C62.8497241,25.1236951 61.9594122,24.9547374 61.1252062,24.6168171 C60.2910002,24.2788967 59.5735939,23.8153846 58.9729656,23.2262669 C58.3723373,22.6371491 57.8991221,21.9284241 57.5533058,21.1000707 C57.2074895,20.2717173 57.0345839,19.382073 57.0345839,18.4311114 C57.0345839,17.4801497 57.204456,16.5890102 57.5442054,15.7576664 C57.8839547,14.9263225 58.3480696,14.2131119 58.936564,13.6180133 C59.5250584,13.0229146 60.2348812,12.5549169 61.0660537,12.2140061 C61.8972262,11.8730953 62.7890549,11.7026425 63.7415664,11.7026425 C64.80935,11.7026425 65.805832,11.9104753 66.7310423,12.3261472 C67.6562526,12.7418192 68.4297774,13.3219569 69.05164,14.0665779 C69.6735027,14.8111988 70.0845325,15.6589774 70.284742,16.6099391 L67.3726193,16.6099391 C67.0935395,15.9221366 66.632458,15.3763885 65.9893611,14.9726783 C65.3462641,14.5689682 64.6152073,14.3671161 63.7961687,14.3671161 C62.6434477,14.3671161 61.7046009,14.7439066 60.9796001,15.4974989 C60.2545993,16.2510912 59.8921043,17.2289522 59.8921043,18.4311114 C59.8921043,19.6272896 60.2500491,20.5991698 60.9659495,21.3467812 C61.6818499,22.0943926 62.6252469,22.4681927 63.7961687,22.4681927 C64.6394751,22.4681927 65.3947994,22.2663406 66.0621641,21.8626305 C66.7295289,21.4589203 67.1845435,20.9251338 67.4272216,20.2612549 L63.5140568,20.2612549 L63.5140568,18.1260874 Z" id="INLONG"></path>
                        </g>
                        <path d="M39.9853818,19.2973018 C39.9950979,19.5529297 40,19.8097907 40,20.0677966 C40,31.0760486 31.0760486,40 20.0677966,40 C19.8097907,40 19.5529297,39.9950979 19.2973018,39.9853818 L39.9853818,19.2973018 Z M38.3014333,12.1275835 C38.8657526,13.4234274 39.2960338,14.7910849 39.5747667,16.2130456 L16.2130456,39.5747667 C14.7914516,39.2961057 13.4241329,38.8659746 12.1285862,38.30187 L38.3014333,12.1275835 Z M20.0677966,0 C27.3635314,0 33.7499449,3.8932668 37.2627853,9.71554842 L34.4765305,12.5016123 C31.7530746,7.32585554 26.3225853,3.79661017 20.0677966,3.79661017 C11.0814685,3.79661017 3.79661017,11.0814685 3.79661017,20.0677966 C3.79661017,26.3225853 7.32585554,31.7530746 12.5016123,34.4765305 L9.71554842,37.2627853 C3.8932668,33.7499449 0,27.3635314 0,20.0677966 C0,8.98465858 8.98465858,0 20.0677966,0 Z M20.7740808,7.23404255 L20.7740808,11.4142627 C22.3382531,11.3713803 24.0619423,11.9089542 25.1891562,13.0420104 C27.5366028,15.4016241 27.3045322,19.4605871 24.6708121,22.107958 L13.7024154,32.7659574 L11.0638298,30.1095317 L21.9862502,19.4977468 C22.961254,18.5176895 23.0460509,17.013939 22.1756493,16.139026 C21.3052478,15.2641131 19.8092512,15.3493495 18.8342473,16.3294068 L15.3014495,19.9204068 C14.7029075,20.5288097 13.7249835,20.5383696 13.1146618,19.9417842 C12.5032068,19.344091 12.4873719,18.365394 13.0791712,17.7482327 L14.2792437,16.4967299 C14.6589729,16.1007271 14.8593482,15.5661175 14.8334505,15.0180831 L14.8313187,14.9729714 C14.8041908,14.3990284 15.0252251,13.8411438 15.4380759,13.4415182 C16.5407895,12.3741285 17.2449732,11.6983767 17.5506271,11.4142627 C18.2901104,10.726892 19.0879682,10.0625976 19.3413209,7.23404255 L20.7740808,7.23404255 Z M16.8551245,13.4042553 L16.1599092,14.6091995 C16.0518372,14.7965094 16.0322948,15.0200384 16.1025104,15.2208872 L16.1451037,15.3191489 L16.8551245,14.6010638 C17.1829779,14.2694867 17.1829779,13.7358324 16.8551245,13.4042553 Z" id="形状结合" fill="url(#linearGradient-1)"></path>
                    </g>
                </g>
            </g>
        </g>
    </g>
</svg>