<?xml version="1.0" encoding="UTF-8"?>
<svg width="472px" height="154px" viewBox="0 0 472 154" version="1.1" xmlns="http://www.w3.org/2000/svg" xmlns:xlink="http://www.w3.org/1999/xlink">
    <title>主标题</title>
    <defs>
        <linearGradient x1="8.36638217%" y1="45.9316982%" x2="100%" y2="54.0308678%" id="linearGradient-1">
            <stop stop-color="#FFE8CB" offset="0%"></stop>
            <stop stop-color="#FFB26E" offset="100%"></stop>
        </linearGradient>
        <linearGradient x1="8.36638217%" y1="49.3445989%" x2="100%" y2="50.6493705%" id="linearGradient-2">
            <stop stop-color="#FFE7CB" offset="0%"></stop>
            <stop stop-color="#FFD2A5" offset="100%"></stop>
        </linearGradient>
    </defs>
    <g id="页面1" stroke="none" stroke-width="1" fill="none" fill-rule="evenodd">
        <g id="应龙官网-英文版排版适配" transform="translate(-360.000000, -337.000000)" fill-rule="nonzero">
            <g id="1">
                <g id="text" transform="translate(360.000000, 169.000000)">
                    <g id="主标题" transform="translate(0.000000, 168.000000)">
                        <path d="M41.4582019,17.8955513 L32.1754732,17.8955513 L32.1754732,89.9651838 L41.4582019,89.9651838 L41.4582019,107.860735 L0,107.860735 L0,89.9651838 L9.1431388,89.9651838 L9.1431388,17.8955513 L0,17.8955513 L0,2.84217094e-14 L41.4582019,2.84217094e-14 L41.4582019,17.8955513 Z M125.305205,107.860735 L102.901025,107.860735 L102.901025,64.8974855 C102.901025,52.4564175 98.4109282,46.2359768 89.4305994,46.2359768 C85.1498209,46.2359768 81.5903139,47.8955347 78.7519716,51.2147002 C75.9136293,54.5338657 74.4944795,58.7698002 74.4944795,63.9226306 L74.4944795,107.860735 L51.9507098,107.860735 L51.9507098,30.8471954 L74.4944795,30.8471954 L74.4944795,43.1025145 L74.7736593,43.1025145 C80.4038136,33.6788697 88.6860652,28.967118 99.6206625,28.967118 C116.743776,28.967118 125.305205,39.5511514 125.305205,60.7195358 L125.305205,107.860735 Z M207.267744,107.860735 L143.824132,107.860735 L143.824132,2.84217094e-14 L166.856467,2.84217094e-14 L166.856467,89.0599613 L207.267744,89.0599613 L207.267744,107.860735 Z M212.176656,69.7021277 C212.176656,57.0289502 215.980443,47.0716029 223.588131,39.8297872 C231.195819,32.5879715 241.420677,28.967118 254.263013,28.967118 C266.686576,28.967118 276.550831,32.529945 283.856073,39.655706 C291.161314,46.781467 294.81388,56.3558393 294.81388,68.3791103 C294.81388,81.0058658 291.068255,91.0560555 283.576893,98.5299807 C276.08553,106.003906 265.942099,109.740812 253.146293,109.740812 C240.583139,109.740812 230.614193,106.154775 223.239156,98.9825919 C215.864119,91.810409 212.176656,82.0503519 212.176656,69.7021277 Z M234.999606,69.4235977 C234.999606,84.7892451 241.281089,92.4719536 253.844243,92.4719536 C265.895565,92.4719536 271.921136,84.5803497 271.921136,68.7969052 C271.921136,53.7562111 265.849035,46.2359768 253.704653,46.2359768 C247.795317,46.2359768 243.200529,48.255299 239.92015,52.2940039 C236.639771,56.3327088 234.999606,62.0425163 234.999606,69.4235977 Z M381.103707,107.860735 L358.699527,107.860735 L358.699527,64.8974855 C358.699527,52.4564175 354.20943,46.2359768 345.229101,46.2359768 C340.948322,46.2359768 337.388815,47.8955347 334.550473,51.2147002 C331.712131,54.5338657 330.292981,58.7698002 330.292981,63.9226306 L330.292981,107.860735 L307.749211,107.860735 L307.749211,30.8471954 L330.292981,30.8471954 L330.292981,43.1025145 L330.572161,43.1025145 C336.202315,33.6788697 344.484567,28.967118 355.419164,28.967118 C372.542278,28.967118 381.103707,39.5511514 381.103707,60.7195358 L381.103707,107.860735 Z M472,99.3655706 C472,113.663514 468.263672,149 424.469637,149 C414.046872,149 405.764621,147.514522 399.622634,144.54352 L399.622634,125.324952 C407.625829,129.967141 416.745622,130 424.888407,130 C432.938132,130 449.526025,127.5 449.526025,102.98646 L449.526025,96.5802708 L449.17705,96.5802708 C443.733017,105.354009 435.636883,109.740812 424.888407,109.740812 C415.163595,109.740812 407.381536,106.282433 401.541995,99.3655706 C395.702455,92.4487082 392.782729,83.1876789 392.782729,71.582205 C392.782729,58.6304962 396.004897,48.290174 402.44933,40.5609284 C408.893763,32.8316828 417.3505,28.967118 427.819795,28.967118 C437.311956,28.967118 444.43097,32.6576033 449.17705,40.0386847 L449.526025,40.0386847 L449.526025,30.8471954 L472,30.8471954 L472,99.3655706 Z M449.73541,64.410058 C449.73541,59.3036495 448.188304,54.9980833 445.094046,51.4932302 C441.999787,47.9883771 438.102941,46.2359768 433.403391,46.2359768 C427.912827,46.2359768 423.573951,48.3829573 420.386632,52.6769826 C417.199314,56.9710079 415.605678,62.9941585 415.605678,70.7466151 C415.605678,77.4777899 417.141152,82.781412 420.212145,86.6576402 C423.283138,90.5338685 427.35447,92.4719536 432.426262,92.4719536 C437.544584,92.4719536 441.708974,90.4990526 444.919558,86.5531915 C448.130142,82.6073304 449.73541,77.4777879 449.73541,71.1644101 L449.73541,64.410058 Z" id="InLong" fill="url(#linearGradient-1)"></path>
                        <path d="M7.51171875,131.859375 L5.953125,131.859375 L5.953125,143.988281 L7.51171875,143.988281 L7.51171875,147 L0.55078125,147 L0.55078125,143.988281 L2.0859375,143.988281 L2.0859375,131.859375 L0.55078125,131.859375 L0.55078125,128.847656 L7.51171875,128.847656 L7.51171875,131.859375 Z M30.0898438,147 L26.328125,147 L26.328125,139.769531 C26.328125,137.675771 25.5742263,136.628906 24.0664062,136.628906 C23.3476527,136.628906 22.7500024,136.9082 22.2734375,137.466797 C21.7968726,138.025393 21.5585938,138.738277 21.5585938,139.605469 L21.5585938,147 L17.7734375,147 L17.7734375,134.039062 L21.5585938,134.039062 L21.5585938,136.101562 L21.6054688,136.101562 C22.550786,134.515617 23.9413971,133.722656 25.7773438,133.722656 C28.6523581,133.722656 30.0898438,135.503888 30.0898438,139.066406 L30.0898438,147 Z M51.0390625,146.519531 C50.132808,147.050784 48.8437584,147.316406 47.171875,147.316406 C45.1953026,147.316406 43.5976623,146.71485 42.3789062,145.511719 C41.1601502,144.308588 40.5507812,142.75001 40.5507812,140.835938 C40.5507812,138.632801 41.2070247,136.896491 42.5195312,135.626953 C43.8320378,134.357416 45.5820203,133.722656 47.7695312,133.722656 C49.2461011,133.722656 50.3398402,133.925779 51.0507812,134.332031 L51.0507812,137.578125 C50.1835894,136.945309 49.2382864,136.628906 48.2148438,136.628906 C47.058588,136.628906 46.1308629,136.980465 45.4316406,137.683594 C44.7324184,138.386722 44.3828125,139.351556 44.3828125,140.578125 C44.3828125,141.765631 44.7148404,142.701168 45.3789062,143.384766 C46.0429721,144.068363 46.9453068,144.410156 48.0859375,144.410156 C49.093755,144.410156 50.0781202,144.089847 51.0390625,143.449219 L51.0390625,146.519531 Z M73.8398438,147 L70.078125,147 L70.078125,145.019531 L70.0195312,145.019531 C69.0507764,146.550789 67.7265709,147.316406 66.046875,147.316406 C63.0312349,147.316406 61.5234375,145.496112 61.5234375,141.855469 L61.5234375,134.039062 L65.3085938,134.039062 L65.3085938,141.503906 C65.3085938,143.441416 66.0663987,144.410156 67.5820312,144.410156 C68.3398475,144.410156 68.9453102,144.144534 69.3984375,143.613281 C69.8515648,143.082029 70.078125,142.363286 70.078125,141.457031 L70.078125,134.039062 L73.8398438,134.039062 L73.8398438,147 Z M89.0585938,145.441406 L89.0585938,147 L85.2734375,147 L85.2734375,127.816406 L89.0585938,127.816406 L89.0585938,136.019531 L89.1054688,136.019531 C90.0976612,134.488274 91.5117096,133.722656 93.3476562,133.722656 C94.9804769,133.722656 96.259761,134.292963 97.1855469,135.433594 C98.1113328,136.574224 98.5742188,138.148427 98.5742188,140.15625 C98.5742188,142.304698 98.0429741,144.03515 96.9804688,145.347656 C95.9179634,146.660163 94.5078213,147.316406 92.75,147.316406 C91.140617,147.316406 89.9257854,146.691413 89.1054688,145.441406 L89.0585938,145.441406 Z M89,141.398438 C89,142.250004 89.2539037,142.964841 89.7617188,143.542969 C90.2695338,144.121097 90.9140586,144.410156 91.6953125,144.410156 C92.6406297,144.410156 93.3769505,144.042972 93.9042969,143.308594 C94.4316433,142.574215 94.6953125,141.535163 94.6953125,140.191406 C94.6953125,139.074213 94.4550805,138.201175 93.9746094,137.572266 C93.4941382,136.943356 92.8085982,136.628906 91.9179688,136.628906 C91.0742145,136.628906 90.3769559,136.945309 89.8261719,137.578125 C89.2753879,138.210941 89,139.023433 89,140.015625 L89,141.398438 Z M109.292969,134.824219 C109.878909,134.496092 110.662104,134.23047 111.642578,134.027344 C112.623052,133.824218 113.460934,133.722656 114.15625,133.722656 C117.781268,133.722656 119.59375,135.539044 119.59375,139.171875 L119.59375,147 L115.996094,147 L115.996094,145.113281 L115.949219,145.113281 C115.066402,146.582039 113.773446,147.316406 112.070312,147.316406 C110.843744,147.316406 109.861332,146.9668 109.123047,146.267578 C108.384762,145.568356 108.015625,144.617194 108.015625,143.414062 C108.015625,140.929675 109.496079,139.484377 112.457031,139.078125 L116.019531,138.597656 C116.019531,137.089836 115.234383,136.335938 113.664062,136.335938 C112.11718,136.335938 110.660163,136.804683 109.292969,137.742188 L109.292969,134.824219 Z M113.570312,141.128906 C112.203118,141.308595 111.519531,141.925776 111.519531,142.980469 C111.519531,143.464846 111.685545,143.855467 112.017578,144.152344 C112.349611,144.44922 112.796872,144.597656 113.359375,144.597656 C114.132816,144.597656 114.769529,144.324221 115.269531,143.777344 C115.769534,143.230466 116.019531,142.550785 116.019531,141.738281 L116.019531,140.8125 L113.570312,141.128906 Z M138.46875,146.847656 C137.898435,147.160158 137.035162,147.316406 135.878906,147.316406 C133.128893,147.316406 131.753906,145.871108 131.753906,142.980469 L131.753906,136.863281 L129.621094,136.863281 L129.621094,134.039062 L131.753906,134.039062 L131.753906,131.191406 L135.515625,130.113281 L135.515625,134.039062 L138.46875,134.039062 L138.46875,136.863281 L135.515625,136.863281 L135.515625,142.324219 C135.515625,143.707038 136.062495,144.398438 137.15625,144.398438 C137.578127,144.398438 138.015623,144.273439 138.46875,144.023438 L138.46875,146.847656 Z M148.4375,129.855469 C148.4375,129.277341 148.642576,128.806642 149.052734,128.443359 C149.462893,128.080076 149.988278,127.898438 150.628906,127.898438 C151.28516,127.898438 151.816404,128.083983 152.222656,128.455078 C152.628908,128.826174 152.832031,129.292966 152.832031,129.855469 C152.832031,130.425784 152.625002,130.900389 152.210938,131.279297 C151.796873,131.658205 151.269534,131.847656 150.628906,131.847656 C149.996091,131.847656 149.472658,131.656252 149.058594,131.273438 C148.644529,130.890623 148.4375,130.417972 148.4375,129.855469 Z M148.71875,147 L148.71875,134.039062 L152.492188,134.039062 L152.492188,147 L148.71875,147 Z M176.195312,147 L172.433594,147 L172.433594,139.769531 C172.433594,137.675771 171.679695,136.628906 170.171875,136.628906 C169.453121,136.628906 168.855471,136.9082 168.378906,137.466797 C167.902341,138.025393 167.664062,138.738277 167.664062,139.605469 L167.664062,147 L163.878906,147 L163.878906,134.039062 L167.664062,134.039062 L167.664062,136.101562 L167.710938,136.101562 C168.656255,134.515617 170.046866,133.722656 171.882812,133.722656 C174.757827,133.722656 176.195312,135.503888 176.195312,139.066406 L176.195312,147 Z M199.957031,145.570312 C199.957031,147.976575 199.271491,149.830072 197.900391,151.130859 C196.52929,152.431647 194.5547,153.082031 191.976562,153.082031 C190.226554,153.082031 188.835943,152.832034 187.804688,152.332031 L187.804688,149.097656 C189.148444,149.87891 190.503899,150.269531 191.871094,150.269531 C193.222663,150.269531 194.279293,149.908207 195.041016,149.185547 C195.802738,148.462887 196.183594,147.460944 196.183594,146.179688 L196.183594,145.101562 L196.125,145.101562 C195.210933,146.578132 193.851572,147.316406 192.046875,147.316406 C190.414054,147.316406 189.107427,146.734381 188.126953,145.570312 C187.146479,144.406244 186.65625,142.847666 186.65625,140.894531 C186.65625,138.714833 187.19726,136.974616 188.279297,135.673828 C189.361334,134.37304 190.781241,133.722656 192.539062,133.722656 C194.13282,133.722656 195.328121,134.343744 196.125,135.585938 L196.183594,135.585938 L196.183594,134.039062 L199.957031,134.039062 L199.957031,145.570312 Z M196.21875,139.6875 C196.21875,138.828121 195.958987,138.103519 195.439453,137.513672 C194.919919,136.923825 194.265629,136.628906 193.476562,136.628906 C192.554683,136.628906 191.826175,136.990231 191.291016,137.712891 C190.755857,138.43555 190.488281,139.449212 190.488281,140.753906 C190.488281,141.886724 190.746091,142.779294 191.261719,143.431641 C191.777346,144.083988 192.460933,144.410156 193.3125,144.410156 C194.171879,144.410156 194.871091,144.078128 195.410156,143.414062 C195.949221,142.749997 196.21875,141.886724 196.21875,140.824219 L196.21875,139.6875 Z" id="Incubating" fill="url(#linearGradient-2)"></path>
                    </g>
                </g>
            </g>
        </g>
    </g>
</svg>