<?xml version="1.0" encoding="UTF-8"?>
<svg width="97px" height="39px" viewBox="0 0 97 39" version="1.1" xmlns="http://www.w3.org/2000/svg" xmlns:xlink="http://www.w3.org/1999/xlink">
    <!-- Generator: Sketch 55.2 (78181) - https://sketchapp.com -->
    <title>asf_logo</title>
    <desc>Created with Sketch.</desc>
    <defs>
        <linearGradient x1="16.5257664%" y1="60.0401797%" x2="159.437977%" y2="27.917509%" id="linearGradient-1">
            <stop stop-color="#F69923" offset="0%"></stop>
            <stop stop-color="#F79A23" offset="31.23%"></stop>
            <stop stop-color="#E97826" offset="83.83%"></stop>
        </linearGradient>
        <linearGradient x1="-73.9207672%" y1="394.533342%" x2="61.4434114%" y2="13.7723153%" id="linearGradient-2">
            <stop stop-color="#9E2064" offset="32.33%"></stop>
            <stop stop-color="#C92037" offset="63.02%"></stop>
            <stop stop-color="#CD2335" offset="75.14%"></stop>
            <stop stop-color="#E97826" offset="100%"></stop>
        </linearGradient>
        <linearGradient x1="-19.1883294%" y1="192.518694%" x2="123.76915%" y2="-136.459941%" id="linearGradient-3">
            <stop stop-color="#282662" offset="0%"></stop>
            <stop stop-color="#662E8D" offset="9.54839%"></stop>
            <stop stop-color="#9F2064" offset="78.82%"></stop>
            <stop stop-color="#CD2032" offset="94.87%"></stop>
        </linearGradient>
        <linearGradient x1="25.6127173%" y1="170.511437%" x2="68.0438343%" y2="-44.3738058%" id="linearGradient-4">
            <stop stop-color="#9E2064" offset="32.33%"></stop>
            <stop stop-color="#C92037" offset="63.02%"></stop>
            <stop stop-color="#CD2335" offset="75.14%"></stop>
            <stop stop-color="#E97826" offset="100%"></stop>
        </linearGradient>
        <linearGradient x1="43.5267868%" y1="77.345208%" x2="60.8706583%" y2="-41.3932652%" id="linearGradient-5">
            <stop stop-color="#282662" offset="0%"></stop>
            <stop stop-color="#662E8D" offset="9.54839%"></stop>
            <stop stop-color="#9F2064" offset="78.82%"></stop>
            <stop stop-color="#CD2032" offset="94.87%"></stop>
        </linearGradient>
        <linearGradient x1="5.33863585%" y1="187.759753%" x2="81.9688505%" y2="-51.1464237%" id="linearGradient-6">
            <stop stop-color="#9E2064" offset="32.33%"></stop>
            <stop stop-color="#C92037" offset="63.02%"></stop>
            <stop stop-color="#CD2335" offset="75.14%"></stop>
            <stop stop-color="#E97826" offset="100%"></stop>
        </linearGradient>
        <linearGradient x1="-129.863039%" y1="306.122219%" x2="66.4595558%" y2="29.7765823%" id="linearGradient-7">
            <stop stop-color="#9E2064" offset="32.33%"></stop>
            <stop stop-color="#C92037" offset="63.02%"></stop>
            <stop stop-color="#CD2335" offset="75.14%"></stop>
            <stop stop-color="#E97826" offset="100%"></stop>
        </linearGradient>
        <linearGradient x1="-4553.3281%" y1="10641.7339%" x2="2860.80525%" y2="-6414.55832%" id="linearGradient-8">
            <stop stop-color="#9E2064" offset="32.33%"></stop>
            <stop stop-color="#C92037" offset="63.02%"></stop>
            <stop stop-color="#CD2335" offset="75.14%"></stop>
            <stop stop-color="#E97826" offset="100%"></stop>
        </linearGradient>
        <linearGradient x1="-15870.1734%" y1="119388.725%" x2="7798.02151%" y2="-57996.7143%" id="linearGradient-9">
            <stop stop-color="#9E2064" offset="32.33%"></stop>
            <stop stop-color="#C92037" offset="63.02%"></stop>
            <stop stop-color="#CD2335" offset="75.14%"></stop>
            <stop stop-color="#E97826" offset="100%"></stop>
        </linearGradient>
    </defs>
    <g id="框架图" stroke="none" stroke-width="1" fill="none" fill-rule="evenodd">
        <g id="重构稿" transform="translate(-359.000000, -13.000000)">
            <g id="1" transform="translate(-1.000000, 0.000000)">
                <g id="top-bar">
                    <g id="asf_logo" transform="translate(360.000000, 13.000000)">
                        <path d="M96.7105502,11.2924649 C96.9039381,11.4878672 97,11.7228608 97,11.9974457 C97,12.2720307 96.9039381,12.5070243 96.7105502,12.7049808 C96.5171624,12.9016603 96.2833274,13 96.0077813,13 C95.7322353,13 95.4996643,12.9029374 95.3075404,12.7075351 C95.1166805,12.5121328 95.0206186,12.2771392 95.0206186,12.0025543 C95.0206186,11.7279693 95.1166805,11.4929757 95.3100683,11.2950192 C95.5034562,11.0983397 95.7360272,11 96.0103093,11 C96.2833274,11 96.5171624,11.0970626 96.7105502,11.2924649 Z M96.627128,12.6219668 C96.7952364,12.4482759 96.8799226,12.2413793 96.8799226,12 C96.8799226,11.7586207 96.7965004,11.5530013 96.629656,11.3805875 C96.4628115,11.2094508 96.258048,11.1238825 96.0153652,11.1238825 C95.7726824,11.1238825 95.5679188,11.2094508 95.3998104,11.3818646 C95.231702,11.5542784 95.1482798,11.761175 95.1482798,12.0038314 C95.1482798,12.2464879 95.231702,12.4533844 95.3972825,12.6245211 C95.5628629,12.7956577 95.7676265,12.8812261 96.0103093,12.8812261 C96.2529921,12.8812261 96.4577557,12.7943806 96.627128,12.6219668 Z M96.488091,11.807152 C96.488091,11.9859515 96.4109887,12.0983397 96.25552,12.1443167 L96.5399139,12.5338442 L96.3098708,12.5338442 L96.0532844,12.1724138 L95.8181854,12.1724138 L95.8181854,12.5338442 L95.6323814,12.5338442 L95.6323814,11.4533844 L96.0343248,11.4533844 C96.1961133,11.4533844 96.3123988,11.4814815 96.3831813,11.5376756 C96.4539637,11.5938697 96.488091,11.6832695 96.488091,11.807152 Z M96.2492001,11.9591315 C96.2871193,11.9284802 96.3048149,11.8761175 96.3048149,11.8058748 C96.3048149,11.7356322 96.2858554,11.6858238 96.2479362,11.6577267 C96.210017,11.6296296 96.1417625,11.6168582 96.0457005,11.6168582 L95.8181854,11.6168582 L95.8181854,12.0063857 L96.0393807,12.0063857 C96.1417625,12.0051086 96.2125449,11.9897829 96.2492001,11.9591315 Z" id="形状" fill="#6D6E71" fill-rule="nonzero"></path>
                        <polygon id="路径" fill="#6D6E71" fill-rule="nonzero" points="24.8981853 7.21993127 24.8981853 9 24.6025346 9 24.6025346 7.21993127 23.7628866 7.21993127 23.7628866 7 25.742268 7 25.742268 7.21993127"></polygon>
                        <polygon id="路径" fill="#6D6E71" fill-rule="nonzero" points="29.4283889 9 29.4283889 8.11963366 27.9942916 8.11963366 27.9942916 9 27.7216495 9 27.7216495 7 27.9942916 7 27.9942916 7.90326274 29.4283889 7.90326274 29.4283889 7 29.7010309 7 29.7010309 9"></polygon>
                        <polygon id="路径" fill="#6D6E71" fill-rule="nonzero" points="31.0157432 7.2209502 31.0157432 7.8780767 32.4474633 7.8780767 32.4474633 8.09788208 31.0157432 8.09788208 31.0157432 8.78248426 32.6701031 8.78248426 32.6701031 9 30.6907216 9 30.6907216 7 32.6180996 7 32.6180996 7.21980538 31.0157432 7.21980538"></polygon>
                        <path d="M21.7835052,25 L27.201648,11 L28.241651,11 L33.6597938,25 L32.2913005,25 L30.6124942,20.6228949 L24.7931517,20.6228949 L23.1325227,25 L21.7835052,25 Z M27.7313873,12.61668 L25.0684084,19.5380914 L30.3229553,19.5380914 L27.7313873,12.61668 Z" id="形状" fill="#D22128" fill-rule="nonzero"></path>
                        <path d="M35.6391753,25 L35.6391753,11 L41.4121382,11 C43.8074078,11 45.5360825,13.2285485 45.5360825,15.3967522 C45.5360825,17.6842422 43.926193,19.8327987 41.5309235,19.8327987 L36.9947245,19.8327987 L36.9947245,24.9985966 L35.6391753,24.9985966 L35.6391753,25 Z M36.9947245,18.6104651 L41.4512675,18.6104651 C43.1002862,18.6104651 44.1609686,17.0920209 44.1609686,15.3967522 C44.1609686,13.6411387 42.8655106,12.2223336 41.3338797,12.2223336 L36.9947245,12.2223336 L36.9947245,18.6104651 Z" id="形状" fill="#D22128" fill-rule="nonzero"></path>
                        <path d="M44.5463918,25 L49.9645346,11 L51.0045376,11 L56.4226804,25 L55.0541871,25 L53.3753808,20.6228949 L47.5560383,20.6228949 L45.8954093,25 L44.5463918,25 Z M50.4942739,12.61668 L47.831295,19.5380914 L53.0858419,19.5380914 L50.4942739,12.61668 Z" id="形状" fill="#D22128" fill-rule="nonzero"></path>
                        <path d="M62.4088557,11 C64.6460876,11 66.2804045,12.2441677 67.0615397,14.0142349 L66.0667931,14.6757612 C65.2679622,12.8475682 63.7044279,12.2261764 62.3368093,12.2261764 C59.3171782,12.2261764 57.6664297,15.1822855 57.6664297,17.9626335 C57.6664297,21.0156188 59.7090098,23.7765915 62.3898961,23.7765915 C63.8106016,23.7765915 65.4803097,22.9988138 66.2791405,21.2093713 L67.3092784,21.7920127 C66.4927519,23.8527086 64.254256,25 62.3191136,25 C58.8558281,25 56.4226804,21.3837485 56.4226804,17.8837485 C56.4239444,14.5595097 58.6080894,11 62.4088557,11 Z" id="路径" fill="#D22128" fill-rule="nonzero"></path>
                        <polygon id="路径" fill="#D22128" fill-rule="nonzero" points="82.1546392 11 82.1546392 25 80.7931226 25 80.7931226 18.4532879 72.608803 18.4532879 72.608803 25 71.2680412 25 71.2680412 11 72.608803 11 72.608803 17.2309543 80.7931226 17.2309543 80.7931226 11"></polygon>
                        <polygon id="路径" fill="#D22128" fill-rule="nonzero" points="93.0412371 23.7775439 93.0412371 25 84.1340206 25 84.1340206 11 92.8737783 11 92.8737783 12.2224561 85.423188 12.2224561 85.423188 17.2708772 91.9221866 17.2708772 91.9221866 18.434386 85.423188 18.434386 85.423188 23.7789474 93.0412371 23.7789474"></polygon>
                        <path d="M23.3071744,28.0762353 C23.456133,28.1256471 23.5874185,28.1934118 23.6985062,28.2767059 L23.5684831,28.5957647 C23.4548706,28.5110588 23.333684,28.4489412 23.2036608,28.4065882 C23.0749001,28.3656471 22.9511887,28.3444706 22.8350515,28.3444706 C22.6633705,28.3444706 22.5257732,28.3783529 22.423522,28.4475294 C22.3212708,28.5167059 22.269514,28.6141176 22.269514,28.7397647 C22.269514,28.8470588 22.2985483,28.9374118 22.3553545,29.008 C22.4121607,29.0785882 22.4841153,29.1336471 22.5699558,29.1731765 C22.6557963,29.2127059 22.7731959,29.2578824 22.9234168,29.3087059 C23.1051967,29.3736471 23.2516305,29.4343529 23.3614559,29.4908235 C23.4725437,29.5472941 23.5672207,29.6305882 23.6454871,29.7421176 C23.7237534,29.8522353 23.7628866,29.9990588 23.7628866,30.1797647 C23.7628866,30.3449412 23.7224911,30.4875294 23.6429623,30.6117647 C23.5634336,30.7345882 23.4498212,30.8305882 23.3046497,30.8983529 C23.1582159,30.9661176 22.9903219,31 22.7997054,31 C22.609089,31 22.4247843,30.9590588 22.2455291,30.8771765 C22.0662739,30.7952941 21.9122659,30.6851765 21.7835052,30.5468235 L21.9185777,30.2418824 C22.0397644,30.3745882 22.1798864,30.4776471 22.3389438,30.5510588 C22.4980013,30.6244706 22.6520093,30.6611765 22.8034925,30.6611765 C22.9966337,30.6611765 23.148117,30.6188235 23.2592047,30.5355294 C23.3702924,30.4522353 23.4258363,30.3392941 23.4258363,30.1981176 C23.4258363,30.088 23.396802,29.9962353 23.3387334,29.9242353 C23.2806648,29.8522353 23.2087103,29.7971765 23.1228698,29.7562353 C23.0370292,29.7167059 22.9196297,29.6715294 22.7694088,29.6207059 C22.5901536,29.5614118 22.4449821,29.5035294 22.332632,29.4484706 C22.2202819,29.3934118 22.1256049,29.3115294 22.0486009,29.2014118 C21.9715969,29.0927059 21.9324637,28.9487059 21.9324637,28.7694118 C21.9324637,28.6155294 21.9703345,28.4814118 22.0460762,28.3656471 C22.1218178,28.2498824 22.2303808,28.1595294 22.3692405,28.096 C22.5093625,28.0324706 22.6696823,28 22.8514622,28 C23.0067326,28.0014118 23.1569535,28.0268235 23.3071744,28.0762353 Z" id="路径" fill="#6D6E71" fill-rule="nonzero"></path>
                        <path d="M27.9734483,28.1992869 C28.1996634,28.3321159 28.3800968,28.5144025 28.5120555,28.7419074 C28.6440143,28.9708255 28.7113402,29.2209396 28.7113402,29.495076 C28.7113402,29.7706254 28.6453608,30.0235657 28.5120555,30.2524838 C28.3800968,30.4828148 28.1996634,30.6636883 27.9734483,30.7979304 C27.7472333,30.9321724 27.4981275,31 27.2301704,31 C26.9568273,31 26.7077214,30.9335855 26.4801599,30.7979304 C26.2539449,30.6636883 26.0735115,30.4814018 25.9415527,30.2524838 C25.8095939,30.0221527 25.742268,29.7706254 25.742268,29.495076 C25.742268,29.2195265 25.8082474,28.9679993 25.9415527,28.7390813 C26.0735115,28.5101633 26.2539449,28.3292898 26.4801599,28.1978739 C26.7063749,28.0650449 26.9568273,28.0000214 27.2301704,28.0000214 C27.4981275,27.9986304 27.7458868,28.0650449 27.9734483,28.1992869 Z M26.6511677,28.4804887 C26.4747738,28.5850562 26.3333894,28.7277767 26.228361,28.905824 C26.1233326,29.0838714 26.0694719,29.2802887 26.0694719,29.495076 C26.0694719,29.7112763 26.1219861,29.9091067 26.228361,30.0885671 C26.3333894,30.2680276 26.4747738,30.4107481 26.6511677,30.5153156 C26.8275615,30.619883 27.0201136,30.6721668 27.2288239,30.6721668 C27.4375342,30.6721668 27.6287397,30.619883 27.8037871,30.5153156 C27.9788344,30.4107481 28.1175258,30.2694406 28.2225542,30.0885671 C28.3262361,29.9091067 28.3787503,29.7112763 28.3787503,29.495076 C28.3787503,29.2788756 28.3262361,29.0824583 28.2225542,28.904411 C28.1188723,28.7263636 27.9788344,28.5850562 27.8037871,28.4804887 C27.6287397,28.3759212 27.4375342,28.3222244 27.2301704,28.3222244 C27.0214601,28.3222244 26.8289081,28.3745081 26.6511677,28.4804887 Z" id="形状" fill="#6D6E71" fill-rule="nonzero"></path>
                        <polygon id="路径" fill="#6D6E71" fill-rule="nonzero" points="30.0575563 28.3304843 30.0575563 29.3846154 31.5132449 29.3846154 31.5132449 29.7150997 30.0575563 29.7150997 30.0575563 31 29.7010309 31 29.7010309 28 31.6804124 28 31.6804124 28.3304843 30.0575563 28.3304843"></polygon>
                        <polygon id="路径" fill="#6D6E71" fill-rule="nonzero" points="34.7941977 28.3304843 34.7941977 31 34.4986395 31 34.4986395 28.3304843 33.6597938 28.3304843 33.6597938 28 35.6391753 28 35.6391753 28.3304843"></polygon>
                        <polygon id="路径" fill="#6D6E71" fill-rule="nonzero" points="40.338258 31 39.6005358 28.4729345 38.8524231 31 38.5342154 31 37.6185567 28 37.9549476 28 38.7069567 30.6025641 39.4485754 28.0042735 39.7615878 28 40.5109993 30.6025641 41.2526179 28 41.5773196 28 40.660362 31 40.338258 31"></polygon>
                        <path d="M42.2601367,30.2421652 L41.9333301,31 L41.5773196,31 L42.8901084,28 L43.2377749,28 L44.5463918,31 L44.1834279,31 L43.8566214,30.2421652 L42.2601367,30.2421652 Z M43.0555977,28.3903134 L42.4033753,29.9116809 L43.7161641,29.9116809 L43.0555977,28.3903134 Z" id="形状" fill="#6D6E71" fill-rule="nonzero"></path>
                        <path d="M47.6546204,30.0441595 C47.5826429,30.0498575 47.5262605,30.0527066 47.4854733,30.0527066 L46.8136832,30.0527066 L46.8136832,31 L46.5257732,31 L46.5257732,28 L47.4854733,28 C47.7997751,28 48.0444986,28.0883191 48.2196439,28.2635328 C48.3935895,28.4387464 48.4811621,28.6880342 48.4811621,29.008547 C48.4811621,29.2535613 48.4319775,29.460114 48.3348079,29.6253561 C48.2376382,29.7905983 48.0972821,29.9102564 47.9149391,29.9814815 L48.5051546,31 L48.177657,31 L47.6546204,30.0441595 Z M48.0169072,29.5441595 C48.1404686,29.4245014 48.2028491,29.2478632 48.2028491,29.017094 C48.2028491,28.7905983 48.1404686,28.6196581 48.0169072,28.5042735 C47.8933458,28.3888889 47.7158013,28.3304843 47.4854733,28.3304843 L46.8136832,28.3304843 L46.8136832,29.7236467 L47.4854733,29.7236467 C47.7158013,29.7236467 47.8933458,29.6638177 48.0169072,29.5441595 Z" id="形状" fill="#6D6E71" fill-rule="nonzero"></path>
                        <polygon id="路径" fill="#6D6E71" fill-rule="nonzero" points="50.8092678 28.3304843 50.8092678 29.3162393 52.2402434 29.3162393 52.2402434 29.6467236 50.8092678 29.6467236 50.8092678 30.6737892 52.4639175 30.6737892 52.4639175 31 50.4845361 31 50.4845361 28 52.4100201 28 52.4100201 28.3304843 50.8092678 28.3304843"></polygon>
                        <polygon id="路径" fill="#6D6E71" fill-rule="nonzero" points="56.7792058 28.3304843 56.7792058 29.3846154 58.2348944 29.3846154 58.2348944 29.7150997 56.7792058 29.7150997 56.7792058 31 56.4226804 31 56.4226804 28 58.4020619 28 58.4020619 28.3304843 56.7792058 28.3304843"></polygon>
                        <path d="M61.6229329,28.1992869 C61.8491479,28.3321159 62.0295813,28.5144025 62.1615401,28.7419074 C62.2934988,28.9708255 62.3608247,29.2209396 62.3608247,29.495076 C62.3608247,29.7706254 62.2948454,30.0235657 62.1615401,30.2524838 C62.0295813,30.4828148 61.8491479,30.6636883 61.6229329,30.7979304 C61.3967179,30.9321724 61.147612,31 60.879655,31 C60.6063118,31 60.357206,30.9335855 60.1296444,30.7979304 C59.9034294,30.6636883 59.722996,30.4814018 59.5910372,30.2524838 C59.4590785,30.0221527 59.3917526,29.7706254 59.3917526,29.495076 C59.3917526,29.2195265 59.457732,28.9679993 59.5910372,28.7390813 C59.722996,28.5101633 59.9034294,28.3292898 60.1296444,28.1978739 C60.3558595,28.0650449 60.6063118,28.0000214 60.879655,28.0000214 C61.1489586,27.9986304 61.3967179,28.0650449 61.6229329,28.1992869 Z M60.3019987,28.4804887 C60.1256049,28.5850562 59.9842205,28.7277767 59.8791921,28.905824 C59.7741637,29.0838714 59.720303,29.2802887 59.720303,29.495076 C59.720303,29.7112763 59.7728172,29.9091067 59.8791921,30.0885671 C59.9842205,30.2680276 60.1256049,30.4107481 60.3019987,30.5153156 C60.4783926,30.619883 60.6709447,30.6721668 60.879655,30.6721668 C61.0883652,30.6721668 61.2795708,30.619883 61.4546181,30.5153156 C61.6296655,30.4107481 61.7683568,30.2694406 61.8733852,30.0885671 C61.9770671,29.9091067 62.0295813,29.7112763 62.0295813,29.495076 C62.0295813,29.2788756 61.9770671,29.0824583 61.8733852,28.904411 C61.7697033,28.7263636 61.6296655,28.5850562 61.4546181,28.4804887 C61.2795708,28.3759212 61.0883652,28.3222244 60.8810015,28.3222244 C60.6709447,28.3222244 60.4783926,28.3745081 60.3019987,28.4804887 Z" id="形状" fill="#6D6E71" fill-rule="nonzero"></path>
                        <path d="M66.0577495,30.670283 C65.882079,30.8896226 65.6403921,31 65.3326889,31 C65.0227478,31 64.779942,30.8896226 64.6042715,30.670283 C64.4286009,30.4509434 64.3402062,30.1466981 64.3402062,29.7561321 L64.3402062,28.0014151 L64.6098661,28.0014151 L64.6098661,29.7561321 C64.6098661,30.0433962 64.6747635,30.2669811 64.8034394,30.4283019 C64.9332342,30.5896226 65.1089047,30.670283 65.3326889,30.670283 C65.557592,30.670283 65.7332625,30.5896226 65.8597006,30.429717 C65.9872575,30.2698113 66.0499171,30.0448113 66.0499171,29.754717 L66.0499171,28 L66.3195876,28 L66.3195876,29.754717 C66.3206959,30.1466981 66.2334201,30.4509434 66.0577495,30.670283 Z" id="路径" fill="#6D6E71" fill-rule="nonzero"></path>
                        <polygon id="路径" fill="#6D6E71" fill-rule="nonzero" points="70.9888252 31 69.5610932 28.5911681 69.5610932 31 69.2886598 31 69.2886598 28 69.5712671 28 70.9989991 30.4116809 70.9989991 28 71.2680412 28 71.2680412 31"></polygon>
                        <path d="M75.6720114,28.1980057 C75.8398597,28.3304843 75.9729102,28.5099715 76.0701393,28.7378917 C76.168392,28.965812 76.2164948,29.2207977 76.2164948,29.5 C76.2164948,29.7792023 76.1673685,30.0356125 76.0701393,30.2635328 C75.9729102,30.4928775 75.8388362,30.6723647 75.6679176,30.8034188 C75.4980224,30.9344729 75.3076579,31 75.0998945,31 L74.2371134,31 L74.2371134,28 L75.1091056,28 C75.316869,28 75.5041632,28.0655271 75.6720114,28.1980057 Z M74.4837685,30.6737892 L75.112176,30.6737892 C75.2708131,30.6737892 75.4151217,30.6239316 75.5451018,30.522792 C75.6750818,30.4216524 75.7784518,30.2820513 75.8541882,30.1025641 C75.9299246,29.9245014 75.9677928,29.7250712 75.9677928,29.5042735 C75.9677928,29.2834758 75.9289012,29.0854701 75.8521413,28.9074074 C75.7753814,28.7293447 75.670988,28.5897436 75.538961,28.485755 C75.4079574,28.3831909 75.2626254,28.3304843 75.1029649,28.3304843 L74.4837685,28.3304843 L74.4837685,30.6737892 L74.4837685,30.6737892 Z" id="形状" fill="#6D6E71" fill-rule="nonzero"></path>
                        <path d="M76.8993119,30.2421652 L76.5725054,31 L76.2164948,31 L77.5292837,28 L77.8769502,28 L79.185567,31 L78.8239938,31 L78.4971873,30.2421652 L76.8993119,30.2421652 Z M77.6947729,28.3903134 L77.0425505,29.9116809 L78.3553393,29.9116809 L77.6947729,28.3903134 Z" id="形状" fill="#6D6E71" fill-rule="nonzero"></path>
                        <polygon id="路径" fill="#6D6E71" fill-rule="nonzero" points="82.2981259 28.3304843 82.2981259 31 82.0037941 31 82.0037941 28.3304843 81.1649485 28.3304843 81.1649485 28 83.1443299 28 83.1443299 28.3304843"></polygon>
                        <polygon id="路径" fill="#6D6E71" fill-rule="nonzero" points="84.1340206 31 84.1340206 28 85.1237113 28 85.1237113 31"></polygon>
                        <path d="M88.3445824,28.1992869 C88.5707974,28.3321159 88.7512308,28.5144025 88.8831896,28.7419074 C89.0151483,28.9708255 89.0824742,29.2209396 89.0824742,29.495076 C89.0824742,29.7706254 89.0164948,30.0235657 88.8831896,30.2524838 C88.7512308,30.4828148 88.5707974,30.6636883 88.3445824,30.7979304 C88.1183673,30.9321724 87.8692615,31 87.6013044,31 C87.3279613,31 87.0788555,30.9335855 86.8512939,30.7979304 C86.6250789,30.6636883 86.4446455,30.4814018 86.3126867,30.2524838 C86.180728,30.0221527 86.1134021,29.7706254 86.1134021,29.495076 C86.1134021,29.2195265 86.1793814,28.9679993 86.3126867,28.7390813 C86.4446455,28.5101633 86.6250789,28.3292898 86.8512939,28.1978739 C87.0775089,28.0650449 87.3279613,28.0000214 87.6013044,28.0000214 C87.870608,27.9986304 88.1183673,28.0650449 88.3445824,28.1992869 Z M87.0236482,28.4804887 C86.8472544,28.5850562 86.70587,28.7277767 86.6008416,28.905824 C86.4958132,29.0838714 86.4419525,29.2802887 86.4419525,29.495076 C86.4419525,29.7112763 86.4944667,29.9091067 86.6008416,30.0885671 C86.70587,30.2680276 86.8472544,30.4107481 87.0236482,30.5153156 C87.2000421,30.619883 87.3925942,30.6721668 87.6013044,30.6721668 C87.8100147,30.6721668 88.0012203,30.619883 88.1762676,30.5153156 C88.351315,30.4107481 88.4900063,30.2694406 88.5950347,30.0885671 C88.6987166,29.9091067 88.7512308,29.7112763 88.7512308,29.495076 C88.7512308,29.2788756 88.6987166,29.0824583 88.5950347,28.904411 C88.4913528,28.7263636 88.351315,28.5850562 88.1762676,28.4804887 C88.0012203,28.3759212 87.8100147,28.3222244 87.602651,28.3222244 C87.3925942,28.3222244 87.2013886,28.3745081 87.0236482,28.4804887 Z" id="形状" fill="#6D6E71" fill-rule="nonzero"></path>
                        <polygon id="路径" fill="#6D6E71" fill-rule="nonzero" points="92.7620211 31 91.3342891 28.5911681 91.3342891 31 91.0618557 31 91.0618557 28 91.344463 28 92.772195 30.4116809 92.772195 28 93.0412371 28 93.0412371 31"></polygon>
                        <path d="M18.7067261,0.598510742 C18.0714142,1.01605581 16.4702759,2.13592529 14.8556701,3.52121565 L15.7880554,5.35006714 C17.0502046,3.63668823 19.0726318,2.60137939 19.0726318,2.60137939 C19.0403754,2.64032949 17.7357451,3.52121565 15.967343,5.59829712 C17.155222,5.53286095 19.3044078,5.28199872 20.7938144,5 C21.2369901,2.24233294 20.0152161,-0.259949457 18.7067261,0.598510742 Z" id="路径" fill="url(#linearGradient-1)" fill-rule="nonzero"></path>
                        <path d="M15.9359762,11.9630435 C15.9464318,11.9586957 15.9568874,11.9543478 15.967343,11.95 L15.7599733,12.0065217 C15.7477751,12.0195652 15.7355768,12.0369565 15.7233786,12.05 C15.7948253,12.0195652 15.8662721,11.9891304 15.9359762,11.9630435 Z" id="路径"></path>
                        <path d="M14.9776523,15.95 C14.898688,15.9905405 14.8161879,16.022973 14.7336879,16.05 C14.8173665,16.022973 14.898688,15.9905405 14.9776523,15.95 Z" id="路径"></path>
                        <path d="M7.17020523,23.9640765 C7.18393278,23.9331476 7.19766032,23.9008741 7.20986259,23.8699453 C7.48746408,23.2244741 7.76201501,22.5964845 8.03351537,21.9859764 C8.33857195,21.3001633 8.64057797,20.6358659 8.93800814,19.9917395 C9.25221643,19.3139948 9.56184886,18.6577658 9.86690545,18.0243973 C10.1872149,17.3600999 10.5029484,16.7200077 10.8125809,16.1041206 C11.0642525,15.6025358 11.3128737,15.1170877 11.5584442,14.6477764 C11.6408095,14.4904428 11.7216495,14.3357987 11.8024895,14.1824993 C11.9626442,13.8772452 12.1227989,13.5800596 12.279903,13.2882528 C12.4248049,13.0193065 12.5697068,12.7557391 12.7115581,12.4975507 C12.7588419,12.4114878 12.8061256,12.325425 12.8534094,12.2407069 C12.8610358,12.2272596 12.8686622,12.2138123 12.8762887,12.1990203 L12.7207098,12.2138123 L12.5986872,12 C12.5864849,12.0215157 12.5742826,12.0416867 12.5620804,12.0618577 C12.3409144,12.4491403 12.1212736,12.8404572 11.9046834,13.2344635 C11.7796102,13.4617232 11.654537,13.6916723 11.5294638,13.9202766 C11.1847499,14.5576794 10.8461371,15.2004611 10.5136254,15.8472769 C10.1765379,16.5008164 9.84707677,17.1583902 9.52371679,17.8173086 C9.20645794,18.4641245 8.89377494,19.1109404 8.59024364,19.7564115 C8.28518705,20.4018826 7.98775688,21.0433196 7.69795312,21.682067 C7.39442182,22.3477092 7.10004222,23.0093171 6.81328903,23.6615119 C6.74922714,23.8080876 6.68363998,23.9560081 6.6195781,24.1025838 C6.39078566,24.6297186 6.16656907,25.1487849 5.94845361,25.6624724 L6.14216454,26 L6.31604679,25.9838632 C6.32214793,25.9690712 6.32824906,25.9529344 6.33587547,25.9381423 C6.61805281,25.2630871 6.89565431,24.6041687 7.17020523,23.9640765 Z" id="路径"></path>
                        <path d="M14.8511856,16.005 L14.8511856,16.005 C14.8611856,16.005 14.8611856,16.005 14.8611856,15.995 C14.8611856,16.005 14.8611856,16.005 14.8511856,16.005 Z" id="路径"></path>
                        <path d="M13.8659794,17.9388715 C13.5451622,17.9789212 13.2182919,18.0189709 12.8823418,18.0590206 C12.8793152,18.0590206 12.8793152,18.0611285 12.8762887,18.0611285 C13.045777,18.0442655 13.2152653,18.0252946 13.3787005,18.0063236 C13.5451622,17.9852448 13.7055708,17.9620582 13.8659794,17.9388715 Z" id="路径" fill="#BE202E" fill-rule="nonzero"></path>
                        <path d="M13.8659794,17.9388715 C13.5451622,17.9789212 13.2182919,18.0189709 12.8823418,18.0590206 C12.8793152,18.0590206 12.8793152,18.0611285 12.8762887,18.0611285 C13.045777,18.0442655 13.2152653,18.0252946 13.3787005,18.0063236 C13.5451622,17.9852448 13.7055708,17.9620582 13.8659794,17.9388715 Z" id="路径" fill="#BE202E" fill-rule="nonzero" opacity="0.35"></path>
                        <path d="M13.8736218,16.0584117 C13.8698006,16.0584117 13.8698006,16.0584117 13.8736218,16.0584117 C13.8698006,16.0611285 13.8659794,16.0611285 13.8659794,16.0611285 C13.934761,16.0556949 13.9997214,16.0475444 14.0646818,16.0393939 C14.3321657,16.0122257 14.5958285,15.9796238 14.8556701,15.9388715 C14.5308681,15.9796238 14.2060662,16.0176594 13.8736218,16.0584117 L13.8736218,16.0584117 L13.8736218,16.0584117 Z" id="路径" fill="#BE202E" fill-rule="nonzero"></path>
                        <path d="M13.8736218,16.0584117 C13.8698006,16.0584117 13.8698006,16.0584117 13.8736218,16.0584117 C13.8698006,16.0611285 13.8659794,16.0611285 13.8659794,16.0611285 C13.934761,16.0556949 13.9997214,16.0475444 14.0646818,16.0393939 C14.3321657,16.0122257 14.5958285,15.9796238 14.8556701,15.9388715 C14.5308681,15.9796238 14.2060662,16.0176594 13.8736218,16.0584117 L13.8736218,16.0584117 L13.8736218,16.0584117 Z" id="路径" fill="#BE202E" fill-rule="nonzero" opacity="0.35"></path>
                        <path d="M15.7880554,5.35006714 L14.8556701,3.52121565 C11.6446533,6.69952393 9.47116654,10.0938482 9.45987192,10.1120247 L10.866332,12.8253684 C12.4591875,9.72398415 14.099762,7.23221706 15.7880554,5.35006714 Z" id="路径" fill="url(#linearGradient-2)" fill-rule="nonzero"></path>
                        <path d="M5.69152832,26.7053223 C5.49575666,27.2777966 5.29860633,27.8605199 5.10007733,28.4564204 C5.09731998,28.4652051 5.09456263,28.4739899 5.09180529,28.4827747 C5.06423181,28.56623 5.03527967,28.6511495 5.00770619,28.7346048 C4.87397485,29.1357761 4.75954494,29.497416 4.49346093,30.3187923 C4.93050047,30.5310909 5.28068357,31.0874599 5.61156525,31.7184994 C5.57571973,31.0640338 5.32204378,30.4505638 4.83675066,29.974722 C6.98886022,30.077211 8.84317627,29.5003442 9.80135445,27.8283091 C9.88683221,27.6789679 9.96541661,27.5223062 10.035729,27.3568596 C9.6000681,27.9439753 9.05962803,28.1928772 8.04354555,28.1328479 C8.04078821,28.134312 8.03940953,28.134312 8.03665219,28.1357761 C8.03940953,28.134312 8.04078821,28.134312 8.04354555,28.1328479 C9.54078513,27.4212813 10.2921623,26.7375331 10.9553043,25.6057615 C11.1124731,25.3378259 11.2655059,25.043536 11.421296,24.7184994 C10.1129347,26.146025 8.59501501,26.5530529 6.99713226,26.2441217 L5.79906486,26.3832139 C5.7659767,26.4900953 5.72875251,26.5969767 5.69152832,26.7053223 Z" id="路径" fill="url(#linearGradient-3)" fill-rule="nonzero"></path>
                        <path d="M6.06474864,24.0617113 C6.30425452,23.4299438 6.55013024,22.789058 6.80364977,22.1442644 C7.04570358,21.5268257 7.29412724,20.9041765 7.54892073,20.2789221 C7.80371422,19.6536677 8.06360358,19.0271106 8.32858882,18.4005536 C8.59866992,17.7622731 8.87512086,17.1265977 9.1553937,16.492225 C9.4331186,15.865668 9.71593938,15.2430188 10.003856,14.6255801 C10.1070474,14.4028332 10.2115127,14.1813889 10.317252,13.9612473 C10.4981554,13.5795815 10.6816067,13.200521 10.866332,12.8253684 C10.8765237,12.8045266 10.8867155,12.7849874 10.8969072,12.7654482 L9.5273922,10 C9.50446078,10.0377758 9.48280334,10.0755516 9.45987192,10.1120247 C9.14010609,10.6447936 8.82288819,11.189286 8.51204013,11.7455019 C8.19737017,12.3069283 7.88779607,12.8800782 7.58586579,13.4610437 C7.33107229,13.9508263 7.08137467,14.4458194 6.83932085,14.9447203 C6.79091009,15.0463242 6.74249933,15.1466254 6.69536253,15.2469266 C6.39725415,15.8747863 6.12717304,16.4818041 5.88384526,17.0640723 C5.60739432,17.7244973 5.3653405,18.3562648 5.15131397,18.9541643 C5.01117755,19.3475535 4.8837808,19.7279166 4.76784976,20.0926484 C4.6723022,20.4052756 4.58057655,20.7166002 4.49394676,21.0279248 C4.29011197,21.7612961 4.11303049,22.4920622 3.96907216,23.2202231 L5.34368306,26 C5.5258604,25.5037043 5.71185965,24.9995929 5.90422874,24.4889685 C5.9564614,24.3469836 6.011242,24.2049988 6.06474864,24.0617113 Z" id="路径" fill="url(#linearGradient-4)" fill-rule="nonzero"></path>
                        <path d="M3.55413101,25.7921231 C3.55132736,25.8249942 3.5485237,25.8564957 3.54712187,25.8893668 C3.07470576,25.1497674 1.80885488,24.4266035 1.81165854,24.4348213 C2.71723957,25.7181632 3.40553722,26.9919177 3.50646885,28.2423885 C3.02143629,28.3396321 2.35696971,28.1985604 1.58876785,27.9232651 C2.38921176,28.64232 2.99059607,28.8409162 3.22470138,28.8943317 C2.48874157,28.9395294 1.72334336,29.4325957 0.952337841,30.0009915 C2.08080956,29.5517533 2.9919979,29.3737016 3.64524985,29.5175126 C2.60929879,32.3800362 1.57194591,35.5411387 0.533191204,38.8967285 C0.851406209,38.8049634 1.04065302,38.5967799 1.14859379,38.3132668 C1.33363512,37.7051517 2.56163663,33.7167936 4.48494495,28.476595 C4.53961625,28.3273055 4.59428755,28.178016 4.65036068,28.0259872 C4.66578079,27.9848983 4.6812009,27.9424399 4.69662101,27.8999814 C4.8998861,27.3507604 5.05899252,26.7563416 5.27767772,26.1838369 C5.32674171,26.0537222 5.37720752,25.9236075 5.42767334,25.7921231 L3.96907216,22.9882202 C4.05755615,22.9882202 3.62141877,24.8662543 3.55413101,25.7921231 Z" id="路径" fill="url(#linearGradient-5)" fill-rule="nonzero"></path>
                        <path d="M5.94845361,26 L7.06671054,25.8710174 C7.04483439,25.8669442 7.02167142,25.8642288 6.99979528,25.858798 C8.33681363,25.6822954 10.1152153,24.6287111 11.2643562,23.3266655 C11.7932441,22.7265568 12.2745193,22.019189 12.7184763,21.1909848 C13.0491921,20.5745836 13.3593186,19.8902969 13.6552899,19.1340514 C13.9139431,18.4728458 14.1623017,17.7573316 14.4016524,16.9807205 C14.0940996,17.1517922 13.7427945,17.2767017 13.3541712,17.3635952 C13.2859691,17.3785301 13.2164802,17.3934649 13.1469913,17.4056843 C13.0762155,17.4192614 13.0054398,17.4301231 12.9333772,17.4409848 C12.934664,17.4409848 12.934664,17.4396271 12.9359509,17.4396271 C14.182891,16.9332006 14.9691453,15.9570058 15.5404986,14.759504 C15.2123565,14.9957458 14.6796081,15.3039464 14.0400526,15.4532947 C13.9538349,15.4736604 13.8637567,15.4899529 13.7736784,15.5035301 C13.7518023,15.5076032 13.7286393,15.5116763 13.7067632,15.5143917 C14.1417124,15.3215967 14.5071726,15.1084359 14.8237333,14.8559015 C14.8919354,14.801593 14.9575638,14.7459269 15.0206186,14.688903 C15.1171309,14.6006517 15.2097828,14.5083273 15.2972874,14.410572 C15.353908,14.3481173 15.407955,14.2843049 15.4607151,14.217777 C15.5842509,14.0616401 15.7013526,13.8932839 15.8094465,13.7113505 C15.8429041,13.6556843 15.8750749,13.5986604 15.9072457,13.5402788 C15.9484244,13.4561007 15.9883162,13.3732802 16.0269211,13.2918175 C16.2006434,12.9225199 16.3409081,12.5925959 16.4515756,12.3034033 C16.5069094,12.1594859 16.555809,12.0250724 16.5969876,11.9001629 C16.6137165,11.8499276 16.6291584,11.8024077 16.6446004,11.7562455 C16.6883527,11.6177589 16.724384,11.4942071 16.7526943,11.3855902 C16.7951598,11.2226647 16.8208964,11.0936821 16.8350515,11 C16.7925861,11.0353005 16.7436865,11.070601 16.6896395,11.1045438 C16.3125978,11.3421434 15.6666082,11.5580196 15.1467281,11.6584902 L16.1736199,11.5390116 L15.1467281,11.6584902 C15.1390071,11.6598479 15.1312861,11.6612056 15.1235651,11.6625634 C15.0720918,11.6720673 15.0193317,11.6802136 14.9665716,11.6897176 C14.9755794,11.6856445 14.9845873,11.6802136 14.9935951,11.6761405 L11.6279144,12.1495972 C11.6227671,12.164532 7.76867676,20.4071655 5.94845361,26 Z" id="路径" fill="url(#linearGradient-6)" fill-rule="nonzero"></path>
                        <path d="M15.967343,5.59829712 C14.8784795,6.72013987 13.2597617,8.9500159 11.5936279,12.2223336 L16.5317754,12.1241854 C19.0359497,7.3840332 20.7511894,5.23377506 20.7938144,5 C19.287729,5.24600748 17.1707905,5.54121251 15.967343,5.59829712 Z" id="路径" fill="url(#linearGradient-7)" fill-rule="nonzero"></path>
                        <path d="M12.9982709,18.95 C12.9174393,18.9884615 12.8366077,19.0192308 12.7543064,19.05 L12.7543064,19.05 C12.8366077,19.0230769 12.9174393,18.9884615 12.9982709,18.95 Z" id="路径" fill="#BE202E" fill-rule="nonzero"></path>
                        <path d="M12.9982709,18.95 C12.9174393,18.9884615 12.8366077,19.0192308 12.7543064,19.05 L12.7543064,19.05 C12.8366077,19.0230769 12.9174393,18.9884615 12.9982709,18.95 Z" id="路径" fill="#BE202E" fill-rule="nonzero" opacity="0.35"></path>
                        <path d="M12.9982709,18.95 C12.9174393,18.9884615 12.8366077,19.0192308 12.7543064,19.05 L12.7543064,19.05 C12.8366077,19.0230769 12.9174393,18.9884615 12.9982709,18.95 Z" id="路径" fill="url(#linearGradient-8)" fill-rule="nonzero"></path>
                        <path d="M14.794679,16.04 C14.8369036,16.02 14.8767824,15.99 14.9166612,15.96 C14.8767824,15.99 14.8369036,16.02 14.794679,16.04 L14.794679,16.04 Z" id="路径" fill="#BE202E" fill-rule="nonzero"></path>
                        <path d="M14.794679,16.04 C14.8369036,16.02 14.8767824,15.99 14.9166612,15.96 C14.8767824,15.99 14.8369036,16.02 14.794679,16.04 L14.794679,16.04 Z" id="路径" fill="#BE202E" fill-rule="nonzero" opacity="0.35"></path>
                        <path d="M14.794679,16.04 C14.8369036,16.02 14.8767824,15.99 14.9166612,15.96 C14.8767824,15.99 14.8369036,16.02 14.794679,16.04 L14.794679,16.04 Z" id="路径" fill="url(#linearGradient-9)" fill-rule="nonzero"></path>
                    </g>
                </g>
            </g>
        </g>
    </g>
</svg>