<?xml version="1.0" encoding="UTF-8"?>
<svg width="488px" height="93px" viewBox="0 0 488 93" version="1.1" xmlns="http://www.w3.org/2000/svg" xmlns:xlink="http://www.w3.org/1999/xlink">
    <!-- Generator: Sketch 55.2 (78181) - https://sketchapp.com -->
    <title>形状结合</title>
    <desc>Created with Sketch.</desc>
    <g id="框架图" stroke="none" stroke-width="1" fill="none" fill-rule="evenodd">
        <g id="重构稿" transform="translate(-359.000000, -336.000000)" fill="#000000">
            <g id="1" transform="translate(-1.000000, 0.000000)">
                <g id="text" transform="translate(360.000000, 336.000000)">
                    <g id="主标备份-4">
                        <path d="M57.2076224,21.2942778 L57.2076224,82.2850336 C57.2076224,88.1588313 52.4459686,92.9204851 46.5721709,92.9204851 C40.6983732,92.9204851 35.9367194,88.1588313 35.9367194,82.2850336 L35.9367194,21.2942778 L10.6471389,21.2942778 C4.76688647,21.2942778 7.20123235e-16,16.5273914 0,10.6471389 C-7.20123235e-16,4.76688647 4.76688647,-6.96171987e-16 10.6471389,0 L83.3528611,0 C89.2331135,-6.40925537e-15 94,4.76688647 94,10.6471389 C94,16.5273914 89.2331135,21.2942778 83.3528611,21.2942778 L57.2076224,21.2942778 Z M366.498401,7.35283058 C368.276962,3.93610529 371.850317,1.60282873 375.968638,1.60282873 C377.87657,1.60282873 379.667537,2.10361432 381.217267,2.98091199 C381.254567,3.00167741 381.291795,3.02268889 381.328949,3.04394693 C381.352853,3.05762363 381.376703,3.07139377 381.400499,3.08525702 C384.906959,5.12808013 386.799574,8.87922443 386.63828,12.6702149 L386.63828,82.2508426 C386.63828,88.1435235 381.861318,92.9204851 375.968638,92.9204851 C370.075957,92.9204851 365.298995,88.1435235 365.298995,82.2508426 L365.298995,51.7064264 L351.794576,74.8864609 C351.513248,75.3693541 351.199978,75.8221583 350.858993,76.2437412 C350.070196,77.2268705 349.09084,78.0844072 347.93662,78.7568426 C347.912824,78.7707059 347.888974,78.784476 347.86507,78.7981527 C346.180018,79.7622709 344.342696,80.2192275 342.530249,80.2164873 C340.717802,80.2192275 338.88048,79.7622709 337.195428,78.7981527 C337.171524,78.784476 337.147674,78.7707059 337.123878,78.7568426 C335.969658,78.0844072 334.990301,77.2268705 334.201505,76.2437412 C333.86052,75.8221583 333.54725,75.3693541 333.265922,74.8864609 L319.710522,51.6189197 L319.710522,82.2508426 C319.710522,88.1435235 314.933561,92.9204851 309.04088,92.9204851 C303.148199,92.9204851 298.371237,88.1435235 298.371237,82.2508426 L298.371237,12.2724712 C298.371237,6.3797904 303.148199,1.60282873 309.04088,1.60282873 C311.175683,1.60282873 313.164051,2.22979115 314.831898,3.30963027 C316.228959,4.19935651 317.43994,5.42667341 318.330697,6.95563873 L342.530249,48.4936302 L366.498401,7.35283058 Z M106.513378,62.0893316 C106.513378,67.4241724 110.837049,71.7489154 116.170569,71.7489154 C121.504088,71.7489154 125.827759,67.4241724 125.827759,62.0893315 L125.827759,37.9377392 C125.827759,32.0708681 130.583798,27.3148295 136.450669,27.3148295 C142.31754,27.3148295 147.073579,32.0708681 147.073579,37.9377392 L147.073579,63.0579225 C147.073579,63.519516 147.044138,63.9742332 146.987031,64.4202987 C145.795715,80.4029841 132.453873,93 116.170569,93 C99.8872646,93 86.5454224,80.4029841 85.354106,64.4202987 C85.2969995,63.9742332 85.2675585,63.519516 85.2675585,63.0579225 L85.2675585,37.9377392 C85.2675585,32.0708681 90.0235972,27.3148295 95.8904682,27.3148295 C101.757339,27.3148295 106.513378,32.0708681 106.513378,37.9377392 L106.513378,62.0893322 Z M178.706632,61.970835 L178.754181,61.970835 C178.754181,67.2986803 183.077852,71.6177523 188.411371,71.6177523 C193.74489,71.6177523 198.068562,67.2986803 198.068562,61.970835 C198.068562,56.6429898 193.74489,52.3239178 188.411371,52.3239178 C186.237333,52.3239178 184.231083,53.041542 182.617057,54.2525947 L182.617057,31.6424544 C184.493936,31.2868018 186.430897,31.1006998 188.411371,31.1006998 C205.478632,31.1006998 219.314381,44.9217301 219.314381,61.970835 C219.314381,79.01994 205.478632,92.8409703 188.411371,92.8409703 C171.34411,92.8409703 157.508361,79.01994 157.508361,61.970835 L157.555909,61.970835 C157.52445,61.6378423 157.508361,61.3003747 157.508361,60.9591495 L157.508361,13.7475495 C157.508361,7.88067847 162.2644,3.12463979 168.131271,3.12463979 C173.998142,3.12463979 178.754181,7.88067847 178.754181,13.7475495 L178.754181,60.9591495 C178.754181,61.3003747 178.738092,61.6378423 178.706632,61.970835 Z M246.025157,64.6588397 C248.195058,69.217274 252.850807,72.3688369 258.244147,72.3688369 C261.927989,72.3688369 265.267717,70.8985154 267.706229,68.5138383 L287.60827,68.5138383 C283.553051,80.8264401 271.938893,89.7163305 258.244147,89.7163305 C241.176886,89.7163305 227.341137,75.9087973 227.341137,58.8763419 C227.341137,41.8438865 241.176886,28.0363533 258.244147,28.0363533 C275.311408,28.0363533 289.147157,41.8438865 289.147157,58.8763419 C289.147157,60.8527769 288.960857,62.7857879 288.604826,64.6588397 L270.463141,64.6588397 L246.025157,64.6588397 Z M246.532824,52.1300944 L269.95547,52.1300944 C267.617787,48.0971784 263.248481,45.3838469 258.244147,45.3838469 C253.239814,45.3838469 248.870508,48.0971784 246.532824,52.1300944 Z M466.102308,51.698344 C466.469123,49.9946827 466.662207,48.2268767 466.662207,46.4141871 C466.662207,32.5529735 455.371997,21.3162396 441.444816,21.3162396 C427.517635,21.3162396 416.227425,32.5529735 416.227425,46.4141871 C416.227425,60.2754007 427.517635,71.5121346 441.444816,71.5121346 C444.204042,71.5121346 446.859765,71.0710841 449.344695,70.2559545 L460.138212,88.8623242 C454.416762,91.3617071 448.093553,92.7488593 441.444816,92.7488593 C415.733098,92.7488593 394.889632,72.00412 394.889632,46.4141871 C394.889632,20.8242542 415.733098,0.0795148675 441.444816,0.0795148675 C467.156534,0.0795148675 488,20.8242542 488,46.4141871 C488,56.2155503 484.942231,65.3061162 479.724327,72.7925036 L482.193412,77.0488277 C485.134431,82.1186938 483.408659,88.6127992 478.338793,91.5538181 C478.326211,91.5611167 478.313615,91.5683894 478.301003,91.5756362 C473.192015,94.5113406 466.671028,92.7640643 463.714341,87.6671901 L451.131003,65.9754415 C448.189984,60.9055753 449.915756,54.4114699 454.985622,51.470451 C454.998203,51.4631524 455.0108,51.4558797 455.023411,51.4486329 C458.592838,49.3975848 462.85149,49.6323956 466.102308,51.698344 Z" id="形状结合"></path>
                    </g>
                </g>
            </g>
        </g>
    </g>
</svg>