<?xml version="1.0" encoding="UTF-8"?>
<svg width="207px" height="98px" viewBox="0 0 207 98" version="1.1" xmlns="http://www.w3.org/2000/svg" xmlns:xlink="http://www.w3.org/1999/xlink">
    <title>应龙</title>
    <defs>
        <linearGradient x1="8.36638217%" y1="40.8900376%" x2="100%" y2="59.0261381%" id="linearGradient-1">
            <stop stop-color="#FFE8CB" offset="0%"></stop>
            <stop stop-color="#FFB26E" offset="100%"></stop>
        </linearGradient>
    </defs>
    <g id="页面1" stroke="none" stroke-width="1" fill="none" fill-rule="evenodd">
        <g id="应龙官网" transform="translate(-361.000000, -372.000000)" fill="url(#linearGradient-1)" fill-rule="nonzero">
            <g id="1">
                <g id="text" transform="translate(360.000000, 216.000000)">
                    <path d="M22.4609375,201.083984 C22.4609375,225.791139 19.1081064,243.271433 12.4023438,253.525391 C9.40753711,250.725897 5.72918848,247.600929 1.3671875,244.150391 C6.90106934,234.905553 9.63541699,219.964296 9.5703125,199.326172 L9.5703125,168.662109 L47.0214844,168.662109 C45.8170513,165.667303 44.6289121,162.802748 43.4570312,160.068359 L59.1796875,156.357422 C60.6445386,159.873064 62.2884023,163.974586 64.1113281,168.662109 L97.265625,168.662109 L97.265625,180.673828 L22.4609375,180.673828 L22.4609375,201.083984 Z M47.0703125,188.291016 L59.2773438,184.677734 C62.7278818,193.662154 66.471334,205.25058 70.5078125,219.443359 L57.3242188,223.056641 C53.4830537,209.189384 50.0651191,197.600958 47.0703125,188.291016 Z M20.703125,235.068359 L67.1875,235.068359 C71.158874,222.307879 75.8463271,205.966896 81.25,186.044922 L94.8242188,189.560547 C91.4387852,202.288475 86.8327114,217.457594 81.0058594,235.068359 L97.65625,235.068359 L97.65625,248.642578 L20.703125,248.642578 L20.703125,235.068359 Z M23.046875,193.369141 L34.765625,188.388672 C40.4948203,200.888734 45.8007568,213.77923 50.6835938,227.060547 L37.5976562,231.943359 C33.4309687,219.768819 28.5807568,206.910875 23.046875,193.369141 Z M191.927083,189.365234 L202.473958,197.373047 C193.815061,208.408258 182.845118,218.694614 169.563802,228.232422 L169.563802,232.138672 C169.563802,236.044941 171.386701,237.998047 175.032552,237.998047 L185.286458,237.998047 C187.63022,237.998047 189.615877,237.208667 191.24349,235.629883 C192.871102,234.051099 194.075517,227.288471 194.856771,215.341797 C199.153667,217.229827 203.222637,218.75976 207.063802,219.931641 C205.794264,230.315807 204.557298,237.192366 203.352865,240.561523 C202.148431,243.930681 200.122085,246.396477 197.273763,247.958984 C194.425441,249.521492 190.722679,250.302734 186.165365,250.302734 L170.540365,250.302734 C161.848915,250.302734 157.210289,245.794316 156.624349,236.777344 C151.643855,239.837255 146.419298,242.815741 140.950521,245.712891 C138.443998,241.611308 135.970064,238.014338 133.528646,234.921875 C129.427063,241.237011 124.283885,247.0475 118.098958,252.353516 C114.843734,247.92641 111.914076,244.21551 109.309896,241.220703 C124.674556,228.004491 132.828771,210.19868 133.772786,187.802734 L111.263021,187.802734 L111.263021,175.302734 L134.21224,175.302734 C134.342449,169.703748 134.407552,163.453811 134.407552,156.552734 L147.49349,156.552734 C147.49349,162.542348 147.395834,168.792285 147.200521,175.302734 L177.718099,175.302734 C173.518859,171.852196 169.401062,168.662124 165.364583,165.732422 L173.079427,156.748047 L189.876302,168.271484 L183.577474,175.302734 L205.403646,175.302734 L205.403646,187.802734 L169.563802,187.802734 L169.563802,211.826172 C178.580774,204.794887 186.035127,197.307982 191.927083,189.365234 Z M146.761068,187.802734 C145.621739,207.464291 141.552769,222.617134 134.554036,233.261719 C142.561889,229.355449 149.90231,225.270204 156.575521,221.005859 L156.575521,187.802734 L146.761068,187.802734 Z" id="应龙"></path>
                </g>
            </g>
        </g>
    </g>
</svg>