<?xml version="1.0" encoding="UTF-8"?>
<svg width="64px" height="38px" viewBox="0 0 64 38" version="1.1" xmlns="http://www.w3.org/2000/svg" xmlns:xlink="http://www.w3.org/1999/xlink">
    <!-- Generator: Sketch 55.2 (78181) - https://sketchapp.com -->
    <title>logo</title>
    <desc>Created with Sketch.</desc>
    <g id="框架图" stroke="none" stroke-width="1" fill="none" fill-rule="evenodd">
        <g id="重构稿" transform="translate(-521.000000, -13.000000)" fill-rule="nonzero">
            <g id="1" transform="translate(-1.000000, 0.000000)">
                <g id="top-bar">
                    <g id="logo" transform="translate(522.000000, 13.000000)">
                        <g id="编组-9">
                            <path d="M24.2781455,26.1022727 L21.6615385,26.1022727 L21.6615385,25.1931818 L27.9391966,25.1931818 L27.9391966,26.1022727 L25.3225895,26.1022727 L25.3225895,33.3068182 L24.2781455,33.3068182 L24.2781455,26.1022727 Z M33.3593113,33.3068182 L32.4797795,33.3068182 L32.4797795,32.375 L32.4577912,32.375 C32.2598955,32.7386382 32.0070327,33.005681 31.699195,33.1761364 C31.3913573,33.3465918 31.0285541,33.4318182 30.6107744,33.4318182 C30.2369715,33.4318182 29.9254738,33.3806823 29.6762719,33.2784091 C29.42707,33.1761359 29.2255126,33.030304 29.0715938,32.8409091 C28.917675,32.6515142 28.8095669,32.4261377 28.7472664,32.1647727 C28.684966,31.9034078 28.6538162,31.613638 28.6538162,31.2954545 L28.6538162,27.4318182 L29.5883187,27.4318182 L29.5883187,31.4090909 C29.5883187,31.7727291 29.6909297,32.060605 29.8961548,32.2727273 C30.10138,32.4848495 30.3835602,32.5909091 30.7427042,32.5909091 C31.0285535,32.5909091 31.2759193,32.545455 31.4848091,32.4545455 C31.693699,32.3636359 31.8677712,32.2348493 32.0070311,32.0681818 C32.146291,31.9015143 32.2507344,31.7064405 32.3203643,31.4829545 C32.3899943,31.2594686 32.4248087,31.0151528 32.4248087,30.75 L32.4248087,27.4318182 L33.3593113,27.4318182 L33.3593113,33.3068182 Z M34.7995446,25.1931818 L35.7340471,25.1931818 L35.7340471,28.2272727 L35.7560354,28.2272727 C35.9099542,27.9015135 36.1518231,27.6647735 36.4816491,27.5170455 C36.8114752,27.3693174 37.1742784,27.2954545 37.5700697,27.2954545 C38.0098378,27.2954545 38.3927968,27.378787 38.7189581,27.5454545 C39.0451194,27.712122 39.3163057,27.9374986 39.532525,28.2215909 C39.7487443,28.5056832 39.9118226,28.8333315 40.0217646,29.2045455 C40.1317066,29.5757594 40.1866768,29.9696949 40.1866768,30.3863636 C40.1866768,30.8030324 40.1335389,31.1969678 40.0272617,31.5681818 C39.9209844,31.9393958 39.7597385,32.2632562 39.5435192,32.5397727 C39.3272999,32.8162893 39.0561136,33.0340901 38.7299523,33.1931818 C38.4037909,33.3522735 38.0244966,33.4318182 37.592058,33.4318182 C37.4527981,33.4318182 37.2970492,33.4166668 37.1248067,33.3863636 C36.9525642,33.3560605 36.7821567,33.3068185 36.6135789,33.2386364 C36.4450011,33.1704542 36.2855876,33.0776521 36.1353335,32.9602273 C35.9850794,32.8428024 35.858648,32.6969706 35.7560354,32.5227273 L35.7340471,32.5227273 L35.7340471,33.3068182 L34.7995446,33.3068182 L34.7995446,25.1931818 Z M39.1972035,30.3181818 C39.1972035,30.0454532 39.1623891,29.7784104 39.0927591,29.5170455 C39.0231292,29.2556805 38.9168535,29.0227283 38.7739288,28.8181818 C38.6310042,28.6136353 38.4477703,28.4507582 38.2242215,28.3295455 C38.0006727,28.2083327 37.7386481,28.1477273 37.4381399,28.1477273 C37.1229728,28.1477273 36.8554512,28.2121206 36.6355672,28.3409091 C36.4156831,28.4696976 36.2361139,28.6382565 36.096854,28.8465909 C35.9575941,29.0549253 35.8568154,29.2916653 35.7945149,29.5568182 C35.7322144,29.821971 35.7010647,30.0909077 35.7010647,30.3636364 C35.7010647,30.6515166 35.7340468,30.9299229 35.800012,31.1988636 C35.8659772,31.4678044 35.9704206,31.7045444 36.1133452,31.9090909 C36.2562698,32.1136374 36.4413361,32.2784085 36.6685496,32.4034091 C36.8957631,32.5284097 37.1706141,32.5909091 37.4931107,32.5909091 C37.8156073,32.5909091 38.0849612,32.5265158 38.3011805,32.3977273 C38.5173998,32.2689387 38.6914721,32.0984859 38.8234025,31.8863636 C38.9553329,31.6742414 39.0506146,31.4318195 39.1092503,31.1590909 C39.1678861,30.8863623 39.1972035,30.606062 39.1972035,30.3181818 Z M45.2329904,29.8068182 C45.2183315,29.5795443 45.1688583,29.3636374 45.0845694,29.1590909 C45.0002806,28.9545444 44.8866755,28.7784098 44.7437509,28.6306818 C44.6008262,28.4829538 44.432251,28.3655307 44.2380201,28.2784091 C44.0437892,28.1912874 43.8294055,28.1477273 43.5948625,28.1477273 C43.35299,28.1477273 43.1349416,28.1912874 42.9407107,28.2784091 C42.7464798,28.3655307 42.5797369,28.4848477 42.440477,28.6363636 C42.3012171,28.7878795 42.1912767,28.9640141 42.1106526,29.1647727 C42.0300284,29.3655313 41.9823876,29.5795443 41.9677287,29.8068182 L45.2329904,29.8068182 Z M46.1345105,31.4431818 C46.0099096,32.102276 45.7350586,32.5984832 45.3099495,32.9318182 C44.8848403,33.2651532 44.3497972,33.4318182 43.7048039,33.4318182 C43.2503769,33.4318182 42.8564239,33.3560614 42.5229331,33.2045455 C42.1894423,33.0530295 41.9090943,32.8409105 41.6818808,32.5681818 C41.4546673,32.2954545 41.2842597,31.9696989 41.170653,31.5909091 C41.0570462,31.2121193 40.9929143,30.7992447 40.9782554,30.3522727 C40.9782554,29.9053008 41.0442196,29.496214 41.1761501,29.125 C41.3080805,28.753786 41.4931468,28.4318195 41.7313545,28.1590909 C41.9695622,27.8863623 42.2517425,27.6742432 42.5779038,27.5227273 C42.9040652,27.3712114 43.2613714,27.2954545 43.6498332,27.2954545 C44.1555665,27.2954545 44.5751723,27.403408 44.9086631,27.6193182 C45.2421539,27.8352284 45.5096755,28.1098468 45.7112358,28.4431818 C45.9127962,28.7765168 46.052054,29.1401495 46.1290134,29.5340909 C46.2059729,29.9280323 46.2371226,30.3030285 46.2224637,30.6590909 L41.9677287,30.6590909 C41.9603992,30.916668 41.9897166,31.1609837 42.0556818,31.3920455 C42.1216471,31.6231072 42.2279228,31.8276506 42.3745121,32.0056818 C42.5211015,32.183713 42.7080001,32.325757 42.9352136,32.4318182 C43.1624271,32.5378793 43.4299487,32.5909091 43.7377864,32.5909091 C44.1335777,32.5909091 44.4579018,32.4962131 44.7107684,32.3068182 C44.9636351,32.1174233 45.130378,31.8295474 45.2110021,31.4431818 L46.1345105,31.4431818 Z M47.365855,25.1931818 L48.7950942,25.1931818 L51.2687773,32.0113636 L53.7534546,25.1931818 L55.1826938,25.1931818 L55.1826938,33.3068182 L54.1932205,33.3068182 L54.1932205,26.5568182 L54.1712322,26.5568182 L51.7195374,33.3068182 L50.8290114,33.3068182 L48.3773166,26.5568182 L48.3553283,26.5568182 L48.3553283,33.3068182 L47.365855,33.3068182 L47.365855,25.1931818 Z M61.0095919,30.9886364 L62.0540359,31.8522727 C62.3618736,31.5340893 62.5890837,31.1458356 62.7356731,30.6875 C62.8822624,30.2291644 62.955556,29.7500025 62.955556,29.25 C62.955556,28.840907 62.9042505,28.437502 62.8016379,28.0397727 C62.6990254,27.6420435 62.5377795,27.2840925 62.3178955,26.9659091 C62.0980114,26.6477257 61.8158311,26.3920464 61.4713461,26.1988636 C61.1268611,26.0056809 60.716417,25.9090909 60.2400016,25.9090909 C59.7635862,25.9090909 59.3531421,26.0056809 59.0086571,26.1988636 C58.6641721,26.3920464 58.3819918,26.6477257 58.1621077,26.9659091 C57.9422237,27.2840925 57.7809778,27.6420435 57.6783653,28.0397727 C57.5757527,28.437502 57.5244472,28.840907 57.5244472,29.25 C57.5244472,29.659093 57.5757527,30.062498 57.6783653,30.4602273 C57.7809778,30.8579565 57.9422237,31.2159075 58.1621077,31.5340909 C58.3819918,31.8522743 58.6641721,32.1079536 59.0086571,32.3011364 C59.3531421,32.4943191 59.7635862,32.5909091 60.2400016,32.5909091 C60.6138045,32.5909091 60.9766077,32.5151523 61.3284222,32.3636364 L60.4598845,31.6477273 L61.0095919,30.9886364 Z M63.3183629,34 L62.1200008,33.0113636 C61.5922791,33.329547 60.965619,33.4886364 60.2400016,33.4886364 C59.6169968,33.4886364 59.0709596,33.3731072 58.6018736,33.1420455 C58.1327877,32.9109837 57.740667,32.5984868 57.4254999,32.2045455 C57.1103327,31.8106041 56.8739609,31.3579571 56.7163774,30.8465909 C56.5587938,30.3352247 56.4800032,29.8030331 56.4800032,29.25 C56.4800032,28.6969669 56.5587938,28.1647753 56.7163774,27.6534091 C56.8739609,27.1420429 57.1103327,26.6893959 57.4254999,26.2954545 C57.740667,25.9015132 58.1327877,25.5871224 58.6018736,25.3522727 C59.0709596,25.1174231 59.6169968,25 60.2400016,25 C60.8630064,25 61.4090436,25.1174231 61.8781296,25.3522727 C62.3472155,25.5871224 62.7393362,25.9015132 63.0545033,26.2954545 C63.3696705,26.6893959 63.6060423,27.1420429 63.7636258,27.6534091 C63.9212094,28.1647753 64,28.6969669 64,29.25 C64,29.8712152 63.9010537,30.4621184 63.703158,31.0227273 C63.5052624,31.5833361 63.2084234,32.0681798 62.8126321,32.4772727 L63.8460819,33.3181818 L63.3183629,34 Z" id="TubeMQ" fill-opacity="0.85" fill="#000000"></path>
                            <path d="M18.7011804,4.26834983 C11.1488964,3.25442193 3.79868025,7.35959343 0.843438692,14.2592491 C0.792921743,14.4076288 0.666629368,14.4818187 0.515078519,14.4818187 C0.489820044,14.4818187 0.489820044,14.4818187 0.46456157,14.4818187 C0.41404462,14.4818187 0.388786145,14.4570887 0.36352767,14.4570887 C0.161459871,14.3828989 0.0856844467,14.1603294 0.161459871,13.9872197 C3.2429938,6.81553456 10.8963117,2.53725341 18.8022143,3.57591126 C19.3831592,3.65010111 19.9893626,3.7490209 20.5703076,3.8974006 C20.6713415,3.8974006 20.7471169,3.97159044 20.7976338,4.04578029 C20.8481508,4.11997014 20.8734093,4.21888993 20.8481508,4.31780973 C20.8228923,4.41672952 20.7471169,4.49091937 20.6713415,4.54037927 C20.5703076,4.58983916 20.4945321,4.61456911 20.3934982,4.58983916 C19.8378118,4.44145947 19.2821253,4.34253968 18.7011804,4.26834983 Z M19.3579008,7.78000256 C19.1810914,7.73054266 18.9790236,7.70581271 18.7769558,7.68108276 C18.6759219,7.65635282 18.6001465,7.60689292 18.5496296,7.53270307 C18.4991126,7.45851323 18.4738541,7.35959343 18.4991126,7.26067363 C18.5243711,7.16175384 18.574888,7.08756399 18.6506635,7.0381041 C18.7264389,6.9886442 18.8274728,6.96391425 18.9285067,6.9886442 C19.105316,7.01337415 19.3073838,7.0381041 19.5094516,7.08756399 C19.7115194,7.13702389 19.8378118,7.31013353 19.7872948,7.50797312 C19.7620364,7.60689292 19.7115194,7.68108276 19.635744,7.73054266 C19.5599686,7.75527261 19.5094516,7.78000256 19.4336762,7.78000256 C19.4084177,7.78000256 19.3831592,7.78000256 19.3579008,7.78000256 Z M21.2522864,6.51877517 C21.2017694,6.51877517 21.176511,6.51877517 21.125994,6.49404522 C20.2419474,6.22201578 19.2568669,5.99944625 18.145494,5.8757965 C18.0697185,5.8757965 17.9686846,5.8263366 17.9181677,5.75214676 C17.8676507,5.67795691 17.8171338,5.57903712 17.8423923,5.48011732 C17.8676507,5.28227773 18.0444601,5.15862799 18.2465279,5.18335794 C19.2821253,5.30700768 20.3177228,5.50484727 21.3533203,5.8263366 C21.5553881,5.90052645 21.656422,6.07363609 21.605905,6.27147568 C21.5553881,6.37039548 21.4796127,6.44458532 21.3785788,6.49404522 C21.3280618,6.51877517 21.3028033,6.51877517 21.2522864,6.51877517 Z M13.3463837,7.82946246 C7.9663286,9.09068985 3.8491972,13.5173507 3.09144296,18.8590196 C2.99040906,19.5761881 2.93989211,20.2933567 2.96515058,21.0105252 C2.96515058,21.2083648 2.81359973,21.3814744 2.61153193,21.3814744 C2.58627346,21.3814744 2.58627346,21.3814744 2.56101498,21.3814744 C2.38420566,21.3567445 2.25791328,21.2083648 2.25791328,21.0352551 C2.23265481,20.2933567 2.28317176,19.5267282 2.38420566,18.7848298 C3.16721838,13.1216715 7.51167606,8.44771118 13.1948329,7.13702389 C13.2958668,7.11229394 13.3969007,7.13702389 13.4726761,7.18648379 C13.5484515,7.23594369 13.5989685,7.31013353 13.624227,7.40905333 C13.6494854,7.50797312 13.624227,7.60689292 13.57371,7.68108276 C13.5231931,7.75527261 13.4474176,7.80473251 13.3463837,7.82946246 Z M11.0226041,29.5918174 C7.6632269,22.519052 9.58287099,14.0861395 15.6701634,9.04122995 C15.8217143,8.9175802 16.0490406,8.94231015 16.1753329,9.09068985 C16.3016253,9.23906954 16.2763668,9.46163908 16.124816,9.58528882 C10.2901083,14.4076288 8.44623963,22.4943221 11.6793244,29.2703281 C11.9319092,29.789657 12.1844939,30.284256 12.4875956,30.7788549 C12.5886295,30.9519646 12.5381126,31.1745341 12.3613032,31.2734539 C12.3107863,31.2981839 12.2602693,31.3229138 12.1844939,31.3229138 C12.133977,31.3229138 12.08346,31.3229138 12.0329431,31.2981839 C11.9571676,31.2734539 11.9066507,31.223994 11.8561337,31.1498042 C11.553032,30.6552052 11.2751888,30.1358763 11.0226041,29.5918174 Z M8.54727352,30.7293951 C9.78493879,33.3260397 11.5277736,35.576465 13.7505193,37.3817513 C13.8262948,37.4559411 13.8768117,37.530131 13.8768117,37.6290508 C13.9020702,37.7032406 13.8515532,37.8021604 13.8010363,37.8763503 C13.7252609,37.9505401 13.624227,38 13.5231931,38 C13.4726761,38 13.4221592,38 13.3716422,37.9752701 C13.3211253,37.9752701 13.2958668,37.9505401 13.2706083,37.9258102 C10.9973456,36.0216041 9.20399387,33.6969889 7.91581165,31.0014245 C4.8595362,24.6210977 5.33944722,17.226843 9.1787354,11.2669253 C9.30502777,11.1185456 9.50709557,11.0690858 9.68390489,11.1680055 C9.83545574,11.2916553 9.88597269,11.4894949 9.78493879,11.6626045 C6.07194299,17.4246826 5.61729044,24.5716378 8.54727352,30.7293951 Z M0.287752246,11.1185456 C0.237235296,11.1185456 0.186718346,11.0938157 0.161459871,11.0443558 C0.0856844467,10.9948959 0.0351674969,10.9207061 0.00990902208,10.8217863 C-0.0153494528,10.7228665 0.00990902208,10.6239467 0.0604259718,10.5497568 C4.10178195,4.26834983 11.553032,0.855616894 19.0547991,1.84481485 C20.8228923,2.06738439 22.5404686,2.53725341 24.157011,3.22969198 C24.3338203,3.30388183 24.4095957,3.52645137 24.3338203,3.69956101 C24.2833034,3.7984808 24.2327864,3.87267065 24.1317525,3.8974006 C24.0307186,3.94686049 23.9296847,3.94686049 23.8539093,3.8974006 C22.2878838,3.22969198 20.646083,2.7845529 18.9285067,2.56198336 C11.7045829,1.62224531 4.53117602,4.9113285 0.641370894,10.945436 C0.565595469,11.0443558 0.46456157,11.1185456 0.338269195,11.1185456 C0.31301072,11.1185456 0.31301072,11.1185456 0.287752246,11.1185456 Z M19.635744,9.31325939 C13.1695744,12.8249121 10.2395913,20.3428166 12.6896634,27.1435525 C12.7149219,27.2424723 12.7149219,27.3413921 12.6644049,27.4155819 C12.613888,27.4897718 12.563371,27.5639616 12.4623371,27.5886916 C12.4118202,27.6134215 12.3865617,27.6134215 12.3360448,27.6134215 C12.3107863,27.6134215 12.2602693,27.6134215 12.2097524,27.5886916 C12.1087185,27.5639616 12.0329431,27.4897718 12.0076846,27.390852 C9.48183709,20.2191668 12.5381126,12.3550431 19.3073838,8.67028072 C19.4589347,8.59609087 19.6862609,8.64555077 19.7872948,8.81866041 C19.8378118,8.89285026 19.8378118,8.99177005 19.8125533,9.09068985 C19.7872948,9.18960964 19.7115194,9.26379949 19.635744,9.31325939 Z M14.5587905,7.60689292 C14.5335321,7.60689292 14.5335321,7.60689292 14.5082736,7.63162287 C14.4324982,7.63162287 14.3567227,7.60689292 14.3062058,7.55743302 C14.2051719,7.50797312 14.1546549,7.40905333 14.1546549,7.31013353 C14.1546549,7.11229394 14.2809473,6.9391843 14.4830151,6.91445435 C15.4680956,6.76607466 16.5289516,6.74134471 17.6403245,6.81553456 C17.8423923,6.8402645 17.9939431,6.9886442 17.9939431,7.18648379 C17.9939431,7.28540358 17.9434262,7.38432338 17.8423923,7.45851323 C17.7666168,7.48324317 17.6908414,7.50797312 17.615066,7.50797312 C16.5289516,7.43378328 15.5186126,7.45851323 14.5587905,7.60689292 Z M12.3107863,9.95623805 C12.4370787,9.80785836 12.6644049,9.80785836 12.7906973,9.95623805 C12.9422482,10.0798878 12.9675066,10.3024573 12.8412143,10.450837 C8.11787945,15.8666958 7.03176503,23.5577099 10.113299,30.0369565 C10.8457947,31.5702133 11.7803583,32.9798204 12.8917312,34.2410478 C13.0180236,34.3894275 12.9927651,34.611997 12.8412143,34.7356468 C12.7906973,34.7851067 12.6896634,34.8098366 12.613888,34.8098366 C12.563371,34.8098366 12.5128541,34.8098366 12.4623371,34.7851067 C12.4118202,34.7603767 12.3613032,34.7356468 12.3360448,34.6861869 C11.1741549,33.3754996 10.2143329,31.8917026 9.45657862,30.3089859 C6.27401079,23.5824398 7.38538368,15.5946664 12.3107863,9.95623805 Z M16.9330872,5.80160666 C9.55761252,5.55430717 3.09144296,10.5250269 1.57593446,17.5977922 C1.55067599,17.7461719 1.39912514,17.8698217 1.22231582,17.8698217 C1.19705734,17.8698217 1.19705734,17.8698217 1.17179887,17.8698217 C1.17179887,17.8698217 1.14654039,17.8698217 1.14654039,17.8698217 C1.04550649,17.8450917 0.969731067,17.7956318 0.919214117,17.721442 C0.868697167,17.6472521 0.843438692,17.5483323 0.868697167,17.4494125 C2.45998108,10.0304279 9.22925235,4.83713865 16.9583457,5.08443814 C17.1604135,5.10916809 17.3119643,5.25754778 17.3119643,5.45538737 C17.2867058,5.55430717 17.2614474,5.62849701 17.1856719,5.70268686 C17.1098965,5.77687671 17.0341211,5.80160666 16.9330872,5.80160666 Z M31.8355873,7.58216297 C31.709295,7.43378328 31.5830026,7.28540358 31.4819687,7.13702389 C31.4314517,7.06283404 31.4061933,6.9886442 31.4061933,6.8897244 C31.4061933,6.79080461 31.4567102,6.69188481 31.5324856,6.64242491 C31.6082611,6.59296502 31.6840365,6.56823507 31.7850704,6.56823507 C31.8861043,6.56823507 31.9871382,6.61769497 32.0376551,6.69188481 C32.1639475,6.81553456 32.2902399,6.9886442 32.4165323,7.13702389 C32.4670492,7.18648379 32.4923077,7.28540358 32.4923077,7.38432338 C32.4923077,7.48324317 32.4417907,7.58216297 32.3660153,7.63162287 C32.2902399,7.68108276 32.2144645,7.70581271 32.138689,7.70581271 C32.1134306,7.70581271 32.1134306,7.70581271 32.0881721,7.70581271 C31.9871382,7.70581271 31.8861043,7.65635282 31.8355873,7.58216297 Z M25.0157991,3.77375085 C25.0915746,3.7490209 25.1926085,3.77375085 25.2683839,3.7984808 C26.2029475,4.26834983 27.1122525,4.8124087 27.9710407,5.40592747 C28.1225915,5.52957722 28.1731085,5.75214676 28.0468161,5.90052645 C27.9962992,5.99944625 27.8700068,6.04890614 27.7689729,6.04890614 C27.6931975,6.04890614 27.617422,6.02417619 27.5669051,5.9747163 C26.7586339,5.40592747 25.8745873,4.8618686 24.9652822,4.41672952 C24.8895068,4.39199957 24.8137313,4.31780973 24.7884729,4.21888993 C24.7632144,4.11997014 24.7632144,4.02105034 24.8137313,3.94686049 C24.8389898,3.87267065 24.9147652,3.7984808 25.0157991,3.77375085 Z M23.4750322,8.9670401 C23.5508076,9.0165 23.626583,9.09068985 23.626583,9.18960964 C23.6518415,9.28852944 23.6518415,9.38744923 23.6013245,9.46163908 C23.5508076,9.56055887 23.4750322,9.61001877 23.3739983,9.63474872 C22.6920194,9.83258831 21.9847822,10.0798878 21.3280618,10.3766472 C16.3016253,12.6518025 13.1948329,17.8203618 13.57371,23.2362206 C13.5989685,23.4340602 13.4474176,23.5824398 13.2453498,23.6071698 C13.2453498,23.6071698 13.2200914,23.6071698 13.2200914,23.6071698 C13.1948329,23.6071698 13.1443159,23.6071698 13.093799,23.5824398 C12.9675066,23.5329799 12.8664727,23.4093302 12.8664727,23.2856805 C12.4623371,17.5977922 15.7459389,12.1572035 21.0249601,9.73366852 C21.7321974,9.41217918 22.4646932,9.14014974 23.1971889,8.94231015 C23.2982228,8.9175802 23.3992567,8.9175802 23.4750322,8.9670401 Z M0.31301072,7.50797312 C0.31301072,7.40905333 0.338269195,7.33486348 0.388786145,7.23594369 C5.06160399,1.8695448 12.133977,-0.751829778 19.2568669,0.187908276 C22.2626254,0.583587457 25.0663161,1.57278541 27.617422,3.13077218 C27.7942314,3.25442193 27.8447483,3.45226152 27.7437144,3.62537116 C27.617422,3.7984808 27.4153542,3.8479407 27.2385449,3.7490209 C24.7884729,2.24049403 22.085816,1.30075597 19.1810914,0.905076792 C12.2855278,-0.00993131415 5.46573959,2.53725341 0.944472592,7.70581271 C0.868697167,7.78000256 0.767663268,7.82946246 0.666629368,7.82946246 C0.641370894,7.82946246 0.641370894,7.82946246 0.616112419,7.82946246 C0.565595469,7.82946246 0.489820044,7.80473251 0.439303095,7.75527261 C0.36352767,7.68108276 0.31301072,7.60689292 0.31301072,7.50797312 Z M30.6231806,6.32093558 C29.8654263,5.62849701 29.0824136,4.98551834 28.2488839,4.46618942 C28.0720746,4.34253968 28.0468161,4.11997014 28.14785,3.97159044 C28.198367,3.8974006 28.2741424,3.8479407 28.3751763,3.82321075 C28.4762102,3.7984808 28.5772441,3.82321075 28.6530195,3.87267065 C29.5118077,4.46618942 30.3453373,5.10916809 31.1030916,5.8263366 C31.2546424,5.94998635 31.2546424,6.17255589 31.12835,6.32093558 C31.0778331,6.37039548 30.9767992,6.41985538 30.8757653,6.41985538 C30.8505068,6.41985538 30.8505068,6.41985538 30.8252484,6.41985538 C30.7494729,6.39512543 30.6736975,6.37039548 30.6231806,6.32093558 Z M22.8183118,7.13702389 C22.6415025,7.06283404 22.4394347,6.96391425 22.2878838,6.9391843 C22.085816,6.86499445 22.0100406,6.64242491 22.085816,6.46931527 C22.136333,6.37039548 22.1868499,6.29620563 22.2878838,6.27147568 C22.3889177,6.24674573 22.4646932,6.24674573 22.5657271,6.27147568 C22.7425364,6.32093558 22.9446042,6.41985538 23.1214135,6.49404522 C23.1971889,6.54350512 23.2729644,6.59296502 23.2982228,6.69188481 C23.3487398,6.79080461 23.3487398,6.8897244 23.2982228,6.96391425 C23.2477059,7.0381041 23.1971889,7.11229394 23.096155,7.13702389 C23.0456381,7.16175384 23.0203796,7.16175384 22.9698627,7.16175384 C22.9193457,7.16175384 22.8688288,7.16175384 22.8183118,7.13702389 Z M24.7379559,5.40592747 C24.9400237,5.50484727 24.9905407,5.70268686 24.8895068,5.90052645 C24.8389898,5.99944625 24.7379559,6.07363609 24.636922,6.09836604 C24.6116635,6.09836604 24.5864051,6.09836604 24.5611466,6.09836604 C24.5106296,6.09836604 24.4601127,6.07363609 24.4095957,6.04890614 C23.5002906,5.57903712 22.5404686,5.18335794 21.5806466,4.88659855 C21.5048711,4.8618686 21.4290957,4.78767875 21.3785788,4.71348891 C21.3280618,4.63929906 21.3280618,4.54037927 21.3533203,4.44145947 C21.4038372,4.26834983 21.605905,4.16943003 21.8079728,4.21888993 C22.8435703,4.54037927 23.8286508,4.93605845 24.7379559,5.40592747 Z M28.9813797,6.19728584 C29.1329305,6.32093558 29.2844814,6.44458532 29.4360322,6.61769497 C29.5623246,6.74134471 29.5623246,6.96391425 29.4360322,7.11229394 C29.3602568,7.16175384 29.2844814,7.21121374 29.1834475,7.21121374 C29.0824136,7.21121374 29.0066382,7.18648379 28.9308627,7.11229394 C28.7793119,6.96391425 28.6530195,6.8402645 28.5014687,6.71661476 C28.4256932,6.64242491 28.3751763,6.56823507 28.3751763,6.46931527 C28.3751763,6.37039548 28.4004348,6.29620563 28.4762102,6.22201578 C28.5519856,6.14782594 28.627761,6.09836604 28.7287949,6.09836604 C28.8045704,6.09836604 28.9056043,6.12309599 28.9813797,6.19728584 Z M25.8493288,5.99944625 C26.0008797,6.12309599 26.177689,6.22201578 26.3039814,6.34566553 C26.3797568,6.39512543 26.4302737,6.46931527 26.4555322,6.56823507 C26.4807907,6.66715486 26.4555322,6.76607466 26.4050153,6.8402645 C26.3544983,6.91445435 26.2787229,6.96391425 26.177689,6.9886442 C26.177689,6.9886442 26.1524305,6.9886442 26.127172,6.9886442 C26.0513966,6.9886442 25.9756212,6.96391425 25.9251042,6.91445435 C25.7735534,6.79080461 25.5967441,6.69188481 25.4451932,6.59296502 C25.3694178,6.54350512 25.3189008,6.46931527 25.2936424,6.37039548 C25.2683839,6.27147568 25.2936424,6.17255589 25.3441593,6.09836604 C25.3946763,6.02417619 25.4704517,5.9747163 25.5714856,5.94998635 C25.6725195,5.9252564 25.7735534,5.94998635 25.8493288,5.99944625 Z" id="logo" fill="#219C40"></path>
                        </g>
                    </g>
                </g>
            </g>
        </g>
    </g>
</svg>